<svg width="281" height="628" viewBox="0 0 281 628" fill="none" xmlns="http://www.w3.org/2000/svg">
<path d="M1 136.96L1 45.7788L79.5517 1.15012L158.103 45.7788L158.103 136.96L79.5517 182.203L1 136.96Z" fill="#F7E6A3" stroke="black" stroke-width="2"/>
<path d="M51.6124 79.8679C51.6124 86.4919 57.3724 89.6599 64.2364 89.6599C71.0524 89.6599 77.2924 86.4919 77.2924 79.8679C77.2924 74.2519 72.8764 71.1319 67.4044 70.2679C71.7724 69.6439 75.4204 67.4839 75.4204 62.7319C75.4204 56.9239 69.9004 54.7639 64.2364 54.7639C58.5244 54.7639 53.0044 56.9239 53.0044 62.7319C53.0044 67.4839 56.6524 69.6439 61.0684 70.3159C55.6924 71.1319 51.6124 74.2519 51.6124 79.8679ZM56.3164 79.8679C56.3164 72.8599 59.1964 70.7479 64.2364 70.7479C69.4204 70.7479 72.5884 72.8599 72.5884 79.8679C72.5884 86.8279 69.4204 88.9399 64.2364 88.9399C59.1964 88.9399 56.3164 86.8279 56.3164 79.8679ZM57.5164 62.7319C57.5164 56.5879 60.1084 55.4839 64.2364 55.4839C68.7484 55.4839 70.9564 56.5879 70.9564 62.7319C70.9564 68.9239 68.4124 70.0279 64.2364 70.0279C59.7724 70.0279 57.5164 68.9239 57.5164 62.7319ZM80.9036 67.5319C80.9036 75.9319 86.8556 80.2519 94.7276 80.2519C100.2 80.2519 103.752 76.2679 104.52 71.1319C104.52 82.4119 101.16 88.9399 94.8716 88.9399C90.3116 88.9399 88.1996 86.0599 87.4796 81.1639L82.6316 82.3639C85.0796 87.4039 89.1596 89.6599 94.8236 89.6599C102.408 89.6119 109.32 84.1399 109.32 72.1879C109.32 59.2279 103.08 54.7639 94.8236 54.7639C86.9516 54.7639 80.9036 59.1319 80.9036 67.5319ZM85.6076 67.5319C85.6076 59.3239 89.8796 55.3879 94.8236 55.3879C100.152 55.3879 102.216 57.7399 103.752 63.5959C105.144 70.1719 102.84 79.4359 94.7276 79.4359C89.6876 79.4359 85.6076 75.8359 85.6076 67.5319Z" fill="black"/>
<path d="M23.1839 112.892C22.9812 112.892 22.8105 112.839 22.6719 112.732C22.5439 112.615 22.4799 112.46 22.4799 112.268V101.02C22.4799 100.839 22.5385 100.689 22.6559 100.572C22.7732 100.455 22.9225 100.396 23.1039 100.396H26.9919C27.6319 100.396 28.2079 100.535 28.7199 100.812C29.2425 101.079 29.6532 101.447 29.9519 101.916C30.2612 102.385 30.4159 102.929 30.4159 103.548C30.4159 104.124 30.2612 104.636 29.9519 105.084C29.6426 105.532 29.2372 105.873 28.7359 106.108C29.4505 106.3 30.0265 106.663 30.4639 107.196C30.9012 107.719 31.1199 108.385 31.1199 109.196C31.1199 109.921 30.9546 110.561 30.6239 111.116C30.2932 111.671 29.8345 112.108 29.2479 112.428C28.6719 112.737 28.0105 112.892 27.2639 112.892H23.1839ZM23.7279 111.692H27.2639C27.7759 111.692 28.2292 111.591 28.6239 111.388C29.0185 111.185 29.3279 110.897 29.5519 110.524C29.7759 110.151 29.8879 109.708 29.8879 109.196C29.8879 108.716 29.7759 108.3 29.5519 107.948C29.3279 107.585 29.0185 107.308 28.6239 107.116C28.2292 106.913 27.7759 106.812 27.2639 106.812H23.7279V111.692ZM23.7279 105.612H26.9919C27.6319 105.612 28.1599 105.431 28.5759 105.068C28.9919 104.705 29.1999 104.199 29.1999 103.548C29.1999 102.908 28.9919 102.423 28.5759 102.092C28.1599 101.761 27.6319 101.596 26.9919 101.596H23.7279V105.612ZM36.9809 113.052C36.2875 113.052 35.6742 112.913 35.1409 112.636C34.6182 112.359 34.2022 111.975 33.8929 111.484C33.5942 110.993 33.4449 110.428 33.4449 109.788V104.748C33.4555 104.567 33.5142 104.423 33.6209 104.316C33.7382 104.199 33.8875 104.14 34.0689 104.14C34.2502 104.14 34.3942 104.199 34.5009 104.316C34.6182 104.423 34.6769 104.572 34.6769 104.764V107.036H37.0449C37.6849 107.036 38.2502 107.159 38.7409 107.404C39.2422 107.639 39.6315 107.98 39.9089 108.428C40.1862 108.865 40.3249 109.388 40.3249 109.996C40.3249 110.615 40.1809 111.153 39.8929 111.612C39.6155 112.071 39.2209 112.428 38.7089 112.684C38.2075 112.929 37.6315 113.052 36.9809 113.052ZM36.9809 111.916C37.5995 111.916 38.1115 111.756 38.5169 111.436C38.9222 111.116 39.1249 110.636 39.1249 109.996C39.1249 109.356 38.9275 108.881 38.5329 108.572C38.1489 108.263 37.6529 108.108 37.0449 108.108H34.6769V109.788C34.6769 110.407 34.8902 110.919 35.3169 111.324C35.7542 111.719 36.3089 111.916 36.9809 111.916ZM42.3249 112.892C42.1435 112.892 41.9942 112.839 41.8769 112.732C41.7702 112.615 41.7169 112.46 41.7169 112.268V104.764C41.7169 104.572 41.7702 104.423 41.8769 104.316C41.9942 104.199 42.1435 104.14 42.3249 104.14C42.5169 104.14 42.6662 104.199 42.7729 104.316C42.8902 104.423 42.9489 104.572 42.9489 104.764V112.268C42.9489 112.46 42.8902 112.615 42.7729 112.732C42.6662 112.839 42.5169 112.892 42.3249 112.892ZM53.3395 112.892C53.1582 112.892 53.0088 112.833 52.8915 112.716C52.7742 112.599 52.7155 112.455 52.7155 112.284V108.124C52.7155 107.463 52.5875 106.919 52.3315 106.492C52.0862 106.065 51.7448 105.745 51.3075 105.532C50.8808 105.319 50.3955 105.212 49.8515 105.212C49.3288 105.212 48.8542 105.313 48.4275 105.516C48.0115 105.719 47.6808 105.996 47.4355 106.348C47.1902 106.7 47.0675 107.1 47.0675 107.548H46.1875C46.2088 106.876 46.3902 106.279 46.7315 105.756C47.0728 105.223 47.5262 104.807 48.0915 104.508C48.6568 104.199 49.2862 104.044 49.9795 104.044C50.7368 104.044 51.4142 104.204 52.0115 104.524C52.6088 104.833 53.0782 105.292 53.4195 105.9C53.7715 106.508 53.9475 107.249 53.9475 108.124V112.284C53.9475 112.455 53.8888 112.599 53.7715 112.716C53.6542 112.833 53.5102 112.892 53.3395 112.892ZM46.4595 112.892C46.2675 112.892 46.1128 112.839 45.9955 112.732C45.8888 112.615 45.8355 112.465 45.8355 112.284V104.764C45.8355 104.572 45.8888 104.423 45.9955 104.316C46.1128 104.199 46.2675 104.14 46.4595 104.14C46.6408 104.14 46.7848 104.199 46.8915 104.316C47.0088 104.423 47.0675 104.572 47.0675 104.764V112.284C47.0675 112.465 47.0088 112.615 46.8915 112.732C46.7848 112.839 46.6408 112.892 46.4595 112.892ZM60.6476 112.972C59.7943 112.972 59.0316 112.78 58.3596 112.396C57.6876 112.012 57.1596 111.484 56.7756 110.812C56.3916 110.14 56.1996 109.377 56.1996 108.524C56.1996 107.66 56.3916 106.892 56.7756 106.22C57.1596 105.548 57.6876 105.02 58.3596 104.636C59.0316 104.252 59.7943 104.06 60.6476 104.06C61.501 104.06 62.2583 104.252 62.9196 104.636C63.5916 105.02 64.1196 105.548 64.5036 106.22C64.8876 106.892 65.085 107.66 65.0956 108.524C65.0956 109.377 64.8983 110.14 64.5036 110.812C64.1196 111.484 63.5916 112.012 62.9196 112.396C62.2583 112.78 61.501 112.972 60.6476 112.972ZM60.6476 111.852C61.2663 111.852 61.821 111.708 62.3116 111.42C62.8023 111.132 63.1863 110.737 63.4636 110.236C63.741 109.735 63.8796 109.164 63.8796 108.524C63.8796 107.884 63.741 107.313 63.4636 106.812C63.1863 106.3 62.8023 105.9 62.3116 105.612C61.821 105.324 61.2663 105.18 60.6476 105.18C60.029 105.18 59.4743 105.324 58.9836 105.612C58.493 105.9 58.1036 106.3 57.8156 106.812C57.5383 107.313 57.3996 107.884 57.3996 108.524C57.3996 109.164 57.5383 109.735 57.8156 110.236C58.1036 110.737 58.493 111.132 58.9836 111.42C59.4743 111.708 60.029 111.852 60.6476 111.852ZM70.7558 104.14C70.8838 104.14 71.0011 104.172 71.1078 104.236C71.2144 104.3 71.2998 104.407 71.3638 104.556L74.8358 112.108C74.9104 112.257 74.9158 112.401 74.8518 112.54C74.7984 112.668 74.6971 112.769 74.5478 112.844C74.3771 112.919 74.2224 112.935 74.0838 112.892C73.9451 112.839 73.8331 112.732 73.7478 112.572L70.4358 105.196H71.1558L67.7798 112.556C67.7051 112.716 67.5878 112.823 67.4278 112.876C67.2784 112.919 67.1238 112.903 66.9638 112.828C66.8144 112.753 66.7078 112.652 66.6438 112.524C66.5904 112.385 66.5958 112.241 66.6598 112.092L70.1798 104.556C70.3078 104.279 70.4998 104.14 70.7558 104.14ZM84.386 112.892C84.2047 112.892 84.0553 112.839 83.938 112.732C83.8207 112.615 83.762 112.46 83.762 112.268V104.764C83.762 104.572 83.8207 104.423 83.938 104.316C84.0553 104.199 84.2047 104.14 84.386 104.14C84.5673 104.14 84.7113 104.199 84.818 104.316C84.9247 104.423 84.978 104.572 84.978 104.764V112.268C84.978 112.46 84.9247 112.615 84.818 112.732C84.7113 112.839 84.5673 112.892 84.386 112.892ZM77.506 112.892C77.3247 112.892 77.1753 112.839 77.058 112.732C76.9513 112.615 76.898 112.46 76.898 112.268V104.764C76.898 104.572 76.9513 104.423 77.058 104.316C77.1753 104.199 77.3247 104.14 77.506 104.14C77.6873 104.14 77.8313 104.199 77.938 104.316C78.0553 104.423 78.114 104.572 78.114 104.764V112.268C78.114 112.46 78.0553 112.615 77.938 112.732C77.8313 112.839 77.6873 112.892 77.506 112.892ZM77.906 109.036V107.932H84.194V109.036H77.906ZM91.8191 112.972C90.9551 112.972 90.1871 112.785 89.5151 112.412C88.8538 112.028 88.3311 111.5 87.9471 110.828C87.5738 110.156 87.3871 109.388 87.3871 108.524C87.3871 107.649 87.5631 106.881 87.9151 106.22C88.2778 105.548 88.7738 105.02 89.4031 104.636C90.0325 104.252 90.7578 104.06 91.5791 104.06C92.3898 104.06 93.0938 104.247 93.6911 104.62C94.2991 104.983 94.7685 105.489 95.0991 106.14C95.4298 106.791 95.5951 107.532 95.5951 108.364C95.5951 108.535 95.5418 108.673 95.4351 108.78C95.3285 108.876 95.1898 108.924 95.0191 108.924H88.2191V107.9H95.1471L94.4591 108.396C94.4698 107.777 94.3578 107.223 94.1231 106.732C93.8885 106.241 93.5525 105.857 93.1151 105.58C92.6885 105.303 92.1765 105.164 91.5791 105.164C90.9711 105.164 90.4378 105.308 89.9791 105.596C89.5205 105.884 89.1631 106.284 88.9071 106.796C88.6618 107.297 88.5391 107.873 88.5391 108.524C88.5391 109.175 88.6778 109.751 88.9551 110.252C89.2431 110.753 89.6325 111.148 90.1231 111.436C90.6138 111.724 91.1791 111.868 91.8191 111.868C92.2031 111.868 92.5871 111.804 92.9711 111.676C93.3658 111.537 93.6805 111.367 93.9151 111.164C94.0325 111.068 94.1658 111.02 94.3151 111.02C94.4645 111.009 94.5925 111.047 94.6991 111.132C94.8378 111.26 94.9071 111.399 94.9071 111.548C94.9178 111.697 94.8591 111.825 94.7311 111.932C94.3791 112.231 93.9311 112.481 93.3871 112.684C92.8431 112.876 92.3205 112.972 91.8191 112.972ZM105.167 112.892C104.986 112.892 104.837 112.839 104.719 112.732C104.602 112.615 104.543 112.46 104.543 112.268V104.764C104.543 104.572 104.602 104.423 104.719 104.316C104.837 104.199 104.986 104.14 105.167 104.14C105.349 104.14 105.493 104.199 105.599 104.316C105.706 104.423 105.759 104.572 105.759 104.764V112.268C105.759 112.46 105.706 112.615 105.599 112.732C105.493 112.839 105.349 112.892 105.167 112.892ZM98.2873 112.892C98.1059 112.892 97.9566 112.839 97.8393 112.732C97.7326 112.615 97.6793 112.46 97.6793 112.268V104.764C97.6793 104.572 97.7326 104.423 97.8393 104.316C97.9566 104.199 98.1059 104.14 98.2873 104.14C98.4686 104.14 98.6126 104.199 98.7193 104.316C98.8366 104.423 98.8953 104.572 98.8953 104.764V112.268C98.8953 112.46 98.8366 112.615 98.7193 112.732C98.6126 112.839 98.4686 112.892 98.2873 112.892ZM98.6873 109.036V107.932H104.975V109.036H98.6873ZM116.12 112.892C115.939 112.892 115.79 112.839 115.672 112.732C115.555 112.615 115.496 112.46 115.496 112.268V104.764C115.496 104.572 115.555 104.423 115.672 104.316C115.79 104.199 115.939 104.14 116.12 104.14C116.302 104.14 116.446 104.199 116.552 104.316C116.659 104.423 116.712 104.572 116.712 104.764V112.268C116.712 112.46 116.659 112.615 116.552 112.732C116.446 112.839 116.302 112.892 116.12 112.892ZM109.24 112.892C109.059 112.892 108.91 112.839 108.792 112.732C108.686 112.615 108.632 112.46 108.632 112.268V104.764C108.632 104.572 108.686 104.423 108.792 104.316C108.91 104.199 109.059 104.14 109.24 104.14C109.422 104.14 109.566 104.199 109.672 104.316C109.79 104.423 109.848 104.572 109.848 104.764V112.268C109.848 112.46 109.79 112.615 109.672 112.732C109.566 112.839 109.422 112.892 109.24 112.892ZM109.64 109.036V107.932H115.928V109.036H109.64ZM123.122 113.052C122.428 113.052 121.815 112.913 121.282 112.636C120.759 112.359 120.343 111.975 120.034 111.484C119.735 110.993 119.586 110.428 119.586 109.788V104.748C119.596 104.567 119.655 104.423 119.762 104.316C119.879 104.199 120.028 104.14 120.21 104.14C120.391 104.14 120.535 104.199 120.642 104.316C120.759 104.423 120.818 104.572 120.818 104.764V107.036H123.186C123.826 107.036 124.391 107.159 124.882 107.404C125.383 107.639 125.772 107.98 126.05 108.428C126.327 108.865 126.466 109.388 126.466 109.996C126.466 110.615 126.322 111.153 126.034 111.612C125.756 112.071 125.362 112.428 124.85 112.684C124.348 112.929 123.772 113.052 123.122 113.052ZM123.122 111.916C123.74 111.916 124.252 111.756 124.658 111.436C125.063 111.116 125.266 110.636 125.266 109.996C125.266 109.356 125.068 108.881 124.674 108.572C124.29 108.263 123.794 108.108 123.186 108.108H120.818V109.788C120.818 110.407 121.031 110.919 121.458 111.324C121.895 111.719 122.45 111.916 123.122 111.916ZM128.466 112.892C128.284 112.892 128.135 112.839 128.018 112.732C127.911 112.615 127.858 112.46 127.858 112.268V104.764C127.858 104.572 127.911 104.423 128.018 104.316C128.135 104.199 128.284 104.14 128.466 104.14C128.658 104.14 128.807 104.199 128.914 104.316C129.031 104.423 129.09 104.572 129.09 104.764V112.268C129.09 112.46 129.031 112.615 128.914 112.732C128.807 112.839 128.658 112.892 128.466 112.892ZM137.604 112.892C137.476 112.892 137.369 112.871 137.284 112.828C137.209 112.785 137.129 112.711 137.044 112.604L134.276 109.084L133.796 108.668L131.012 105.132C130.894 104.993 130.836 104.849 130.836 104.7C130.846 104.551 130.9 104.423 130.996 104.316C131.092 104.199 131.23 104.14 131.412 104.14C131.593 104.14 131.748 104.204 131.876 104.332L134.564 107.772L134.996 108.124L137.972 111.932C138.11 112.103 138.169 112.263 138.148 112.412C138.126 112.561 138.057 112.679 137.94 112.764C137.833 112.849 137.721 112.892 137.604 112.892ZM131.268 112.892C131.097 112.892 130.958 112.839 130.852 112.732C130.756 112.625 130.702 112.497 130.692 112.348C130.692 112.199 130.75 112.055 130.868 111.916L133.812 108.236L134.5 109.148L131.7 112.7C131.604 112.828 131.46 112.892 131.268 112.892ZM135.012 108.732L134.228 107.932L136.996 104.428C137.07 104.321 137.15 104.247 137.236 104.204C137.332 104.161 137.428 104.14 137.524 104.14C137.705 104.14 137.844 104.199 137.94 104.316C138.036 104.423 138.078 104.556 138.068 104.716C138.068 104.865 138.014 105.009 137.908 105.148L135.012 108.732ZM45.1364 130.892C44.9551 130.892 44.8057 130.833 44.6884 130.716C44.5711 130.599 44.5124 130.455 44.5124 130.284V126.124C44.5124 125.463 44.3844 124.919 44.1284 124.492C43.883 124.065 43.5417 123.745 43.1044 123.532C42.6777 123.319 42.1924 123.212 41.6484 123.212C41.1257 123.212 40.651 123.313 40.2244 123.516C39.8084 123.719 39.4777 123.996 39.2324 124.348C38.987 124.7 38.8644 125.1 38.8644 125.548H37.9844C38.0057 124.876 38.187 124.279 38.5284 123.756C38.8697 123.223 39.323 122.807 39.8884 122.508C40.4537 122.199 41.083 122.044 41.7764 122.044C42.5337 122.044 43.211 122.204 43.8084 122.524C44.4057 122.833 44.875 123.292 45.2164 123.9C45.5684 124.508 45.7444 125.249 45.7444 126.124V130.284C45.7444 130.455 45.6857 130.599 45.5684 130.716C45.4511 130.833 45.3071 130.892 45.1364 130.892ZM38.2564 130.892C38.0644 130.892 37.9097 130.839 37.7924 130.732C37.6857 130.615 37.6324 130.465 37.6324 130.284V122.764C37.6324 122.572 37.6857 122.423 37.7924 122.316C37.9097 122.199 38.0644 122.14 38.2564 122.14C38.4377 122.14 38.5817 122.199 38.6884 122.316C38.8057 122.423 38.8644 122.572 38.8644 122.764V130.284C38.8644 130.465 38.8057 130.615 38.6884 130.732C38.5817 130.839 38.4377 130.892 38.2564 130.892ZM49.0845 134.636C48.8925 134.636 48.7378 134.577 48.6205 134.46C48.5138 134.353 48.4605 134.204 48.4605 134.012V126.46C48.4712 125.628 48.6685 124.881 49.0525 124.22C49.4472 123.548 49.9752 123.02 50.6365 122.636C51.3085 122.252 52.0605 122.06 52.8925 122.06C53.7458 122.06 54.5085 122.257 55.1805 122.652C55.8525 123.036 56.3805 123.564 56.7645 124.236C57.1592 124.908 57.3565 125.671 57.3565 126.524C57.3565 127.367 57.1645 128.124 56.7805 128.796C56.4072 129.468 55.8952 130.001 55.2445 130.396C54.5938 130.78 53.8578 130.972 53.0365 130.972C52.3218 130.972 51.6712 130.823 51.0845 130.524C50.5085 130.215 50.0445 129.809 49.6925 129.308V134.012C49.6925 134.204 49.6338 134.353 49.5165 134.46C49.4098 134.577 49.2658 134.636 49.0845 134.636ZM52.8925 129.852C53.5112 129.852 54.0658 129.708 54.5565 129.42C55.0472 129.132 55.4312 128.737 55.7085 128.236C55.9965 127.724 56.1405 127.153 56.1405 126.524C56.1405 125.884 55.9965 125.313 55.7085 124.812C55.4312 124.311 55.0472 123.916 54.5565 123.628C54.0658 123.329 53.5112 123.18 52.8925 123.18C52.2845 123.18 51.7352 123.329 51.2445 123.628C50.7538 123.916 50.3698 124.311 50.0925 124.812C49.8152 125.313 49.6765 125.884 49.6765 126.524C49.6765 127.153 49.8152 127.724 50.0925 128.236C50.3698 128.737 50.7538 129.132 51.2445 129.42C51.7352 129.708 52.2845 129.852 52.8925 129.852ZM63.757 130.972C62.9037 130.972 62.141 130.78 61.469 130.396C60.797 130.012 60.269 129.484 59.885 128.812C59.501 128.14 59.309 127.377 59.309 126.524C59.309 125.66 59.501 124.892 59.885 124.22C60.269 123.548 60.797 123.02 61.469 122.636C62.141 122.252 62.9037 122.06 63.757 122.06C64.6103 122.06 65.3677 122.252 66.029 122.636C66.701 123.02 67.229 123.548 67.613 124.22C67.997 124.892 68.1943 125.66 68.205 126.524C68.205 127.377 68.0077 128.14 67.613 128.812C67.229 129.484 66.701 130.012 66.029 130.396C65.3677 130.78 64.6103 130.972 63.757 130.972ZM63.757 129.852C64.3757 129.852 64.9303 129.708 65.421 129.42C65.9117 129.132 66.2957 128.737 66.573 128.236C66.8503 127.735 66.989 127.164 66.989 126.524C66.989 125.884 66.8503 125.313 66.573 124.812C66.2957 124.3 65.9117 123.9 65.421 123.612C64.9303 123.324 64.3757 123.18 63.757 123.18C63.1383 123.18 62.5837 123.324 62.093 123.612C61.6023 123.9 61.213 124.3 60.925 124.812C60.6477 125.313 60.509 125.884 60.509 126.524C60.509 127.164 60.6477 127.735 60.925 128.236C61.213 128.737 61.6023 129.132 62.093 129.42C62.5837 129.708 63.1383 129.852 63.757 129.852ZM74.5691 130.972C73.7051 130.972 72.9371 130.785 72.2651 130.412C71.6038 130.028 71.0811 129.5 70.6971 128.828C70.3238 128.156 70.1371 127.388 70.1371 126.524C70.1371 125.649 70.3131 124.881 70.6651 124.22C71.0278 123.548 71.5238 123.02 72.1531 122.636C72.7825 122.252 73.5078 122.06 74.3291 122.06C75.1398 122.06 75.8438 122.247 76.4411 122.62C77.0491 122.983 77.5185 123.489 77.8491 124.14C78.1798 124.791 78.3451 125.532 78.3451 126.364C78.3451 126.535 78.2918 126.673 78.1851 126.78C78.0785 126.876 77.9398 126.924 77.7691 126.924H70.9691V125.9H77.8971L77.2091 126.396C77.2198 125.777 77.1078 125.223 76.8731 124.732C76.6385 124.241 76.3025 123.857 75.8651 123.58C75.4385 123.303 74.9265 123.164 74.3291 123.164C73.7211 123.164 73.1878 123.308 72.7291 123.596C72.2705 123.884 71.9131 124.284 71.6571 124.796C71.4118 125.297 71.2891 125.873 71.2891 126.524C71.2891 127.175 71.4278 127.751 71.7051 128.252C71.9931 128.753 72.3825 129.148 72.8731 129.436C73.3638 129.724 73.9291 129.868 74.5691 129.868C74.9531 129.868 75.3371 129.804 75.7211 129.676C76.1158 129.537 76.4305 129.367 76.6651 129.164C76.7825 129.068 76.9158 129.02 77.0651 129.02C77.2145 129.009 77.3425 129.047 77.4491 129.132C77.5878 129.26 77.6571 129.399 77.6571 129.548C77.6678 129.697 77.6091 129.825 77.4811 129.932C77.1291 130.231 76.6811 130.481 76.1371 130.684C75.5931 130.876 75.0705 130.972 74.5691 130.972ZM87.2293 130.732C87.1226 130.839 86.9786 130.892 86.7973 130.892C86.6266 130.892 86.4879 130.833 86.3813 130.716L82.5573 126.524L86.2213 122.332C86.3279 122.215 86.4613 122.151 86.6213 122.14C86.7813 122.129 86.9199 122.172 87.0373 122.268C87.1653 122.385 87.2346 122.519 87.2453 122.668C87.2559 122.807 87.2079 122.94 87.1013 123.068L84.0933 126.46L87.2613 129.948C87.3679 130.065 87.4213 130.199 87.4213 130.348C87.4213 130.487 87.3573 130.615 87.2293 130.732ZM81.0213 130.892C80.8399 130.892 80.6959 130.839 80.5893 130.732C80.4826 130.615 80.4293 130.465 80.4293 130.284V122.764C80.4293 122.572 80.4826 122.423 80.5893 122.316C80.6959 122.199 80.8399 122.14 81.0213 122.14C81.2133 122.14 81.3626 122.199 81.4693 122.316C81.5866 122.423 81.6453 122.572 81.6453 122.764V125.932H83.5973V127.052H81.6453V130.284C81.6453 130.465 81.5866 130.615 81.4693 130.732C81.3626 130.839 81.2133 130.892 81.0213 130.892ZM101.238 130.892C101.056 130.892 100.907 130.839 100.79 130.732C100.672 130.615 100.614 130.465 100.614 130.284V125.676C100.614 124.919 100.416 124.321 100.022 123.884C99.627 123.436 99.1203 123.212 98.5016 123.212C97.8403 123.212 97.2963 123.436 96.8696 123.884C96.4536 124.321 96.251 124.908 96.2616 125.644H95.1576C95.1683 124.929 95.323 124.3 95.6216 123.756C95.9203 123.212 96.331 122.791 96.8536 122.492C97.3763 122.193 97.9683 122.044 98.6296 122.044C99.259 122.044 99.8136 122.193 100.294 122.492C100.784 122.791 101.163 123.212 101.43 123.756C101.707 124.3 101.846 124.94 101.846 125.676V130.284C101.846 130.465 101.787 130.615 101.67 130.732C101.563 130.839 101.419 130.892 101.238 130.892ZM90.0376 130.892C89.8456 130.892 89.691 130.839 89.5736 130.732C89.467 130.615 89.4136 130.465 89.4136 130.284V122.764C89.4136 122.583 89.467 122.433 89.5736 122.316C89.691 122.199 89.8456 122.14 90.0376 122.14C90.219 122.14 90.363 122.199 90.4696 122.316C90.587 122.433 90.6456 122.583 90.6456 122.764V130.284C90.6456 130.465 90.587 130.615 90.4696 130.732C90.363 130.839 90.219 130.892 90.0376 130.892ZM95.6536 130.892C95.4723 130.892 95.323 130.839 95.2056 130.732C95.0883 130.615 95.0296 130.465 95.0296 130.284V125.676C95.0296 124.919 94.8323 124.321 94.4376 123.884C94.043 123.436 93.5363 123.212 92.9176 123.212C92.2563 123.212 91.7123 123.431 91.2856 123.868C90.859 124.295 90.6456 124.855 90.6456 125.548H89.7656C89.787 124.865 89.9363 124.263 90.2136 123.74C90.5016 123.207 90.891 122.791 91.3816 122.492C91.8723 122.193 92.427 122.044 93.0456 122.044C93.675 122.044 94.2296 122.193 94.7096 122.492C95.2003 122.791 95.579 123.212 95.8456 123.756C96.123 124.3 96.2616 124.94 96.2616 125.676V130.284C96.2616 130.465 96.203 130.615 96.0856 130.732C95.979 130.839 95.835 130.892 95.6536 130.892ZM108.554 130.972C107.701 130.972 106.938 130.78 106.266 130.396C105.594 130.012 105.066 129.484 104.682 128.812C104.298 128.14 104.106 127.377 104.106 126.524C104.106 125.66 104.298 124.892 104.682 124.22C105.066 123.548 105.594 123.02 106.266 122.636C106.938 122.252 107.701 122.06 108.554 122.06C109.407 122.06 110.165 122.252 110.826 122.636C111.498 123.02 112.026 123.548 112.41 124.22C112.794 124.892 112.991 125.66 113.002 126.524C113.002 127.377 112.805 128.14 112.41 128.812C112.026 129.484 111.498 130.012 110.826 130.396C110.165 130.78 109.407 130.972 108.554 130.972ZM108.554 129.852C109.173 129.852 109.727 129.708 110.218 129.42C110.709 129.132 111.093 128.737 111.37 128.236C111.647 127.735 111.786 127.164 111.786 126.524C111.786 125.884 111.647 125.313 111.37 124.812C111.093 124.3 110.709 123.9 110.218 123.612C109.727 123.324 109.173 123.18 108.554 123.18C107.935 123.18 107.381 123.324 106.89 123.612C106.399 123.9 106.01 124.3 105.722 124.812C105.445 125.313 105.306 125.884 105.306 126.524C105.306 127.164 105.445 127.735 105.722 128.236C106.01 128.737 106.399 129.132 106.89 129.42C107.381 129.708 107.935 129.852 108.554 129.852ZM116.022 130.892C115.83 130.892 115.675 130.839 115.558 130.732C115.451 130.615 115.398 130.46 115.398 130.268V122.748C115.409 122.567 115.467 122.423 115.574 122.316C115.691 122.199 115.841 122.14 116.022 122.14C116.203 122.14 116.347 122.199 116.454 122.316C116.571 122.423 116.63 122.572 116.63 122.764V125.804H120.006V126.028C120.561 126.028 121.051 126.129 121.478 126.332C121.915 126.535 122.251 126.817 122.486 127.18C122.731 127.532 122.854 127.937 122.854 128.396C122.854 128.887 122.731 129.319 122.486 129.692C122.251 130.065 121.915 130.359 121.478 130.572C121.051 130.785 120.561 130.892 120.006 130.892H116.022ZM116.63 129.756H120.006C120.486 129.756 120.881 129.633 121.19 129.388C121.499 129.143 121.654 128.791 121.654 128.332C121.654 127.852 121.499 127.489 121.19 127.244C120.881 126.988 120.486 126.86 120.006 126.86H116.63V129.756ZM118.422 126.492V125.804H120.006C120.379 125.804 120.683 125.681 120.918 125.436C121.153 125.191 121.27 124.876 121.27 124.492C121.27 124.151 121.142 123.863 120.886 123.628C120.641 123.383 120.326 123.26 119.942 123.26H116.038V122.14H119.942C120.433 122.14 120.865 122.241 121.238 122.444C121.622 122.636 121.921 122.903 122.134 123.244C122.358 123.585 122.47 123.98 122.47 124.428C122.47 125.121 122.235 125.639 121.766 125.98C121.307 126.321 120.721 126.492 120.006 126.492H118.422Z" fill="black"/>
<path d="M81 296.697L81 181.523L180.5 125.149L280 181.523V296.697L180.5 353.847L81 296.697Z" stroke="black" stroke-width="2"/>
<path d="M160.16 226.928C160.208 226.784 164.768 218.096 166.688 209.264V236H171.248V202.544H166.688C166.688 212.816 159.536 226.4 159.44 226.544L160.16 226.928ZM184.168 236.72C192.088 236.72 199.72 234.32 199.72 223.616C199.72 215.504 194.056 211.136 187.048 211.136C181.912 211.136 179.032 213.44 177.256 219.008L178.024 207.056H197.848V202.544H177.544L176.152 223.088H176.968C178.408 217.232 179.8 211.856 187.096 211.856C192.328 211.856 194.968 215.552 194.968 223.616C194.968 233.792 190.312 236 184.168 236C180.136 236 177.352 234.896 176.056 234.272L175.816 234.944C177.16 235.568 180.088 236.72 184.168 236.72Z" fill="black"/>
<path d="M99.6943 261.84C99.5876 261.957 99.4436 262.011 99.2623 262C99.0809 262 98.9369 261.936 98.8303 261.808L93.6463 255.648L98.4143 249.696C98.5316 249.568 98.6756 249.504 98.8463 249.504C99.0169 249.493 99.1609 249.547 99.2783 249.664C99.4063 249.792 99.4649 249.931 99.4543 250.08C99.4543 250.219 99.4009 250.352 99.2943 250.48L95.1503 255.584L99.7583 261.008C99.8756 261.147 99.9236 261.291 99.9023 261.44C99.8916 261.579 99.8223 261.712 99.6943 261.84ZM91.6303 262C91.4489 262 91.2996 261.941 91.1823 261.824C91.0649 261.707 91.0063 261.557 91.0063 261.376V250.128C91.0063 249.947 91.0649 249.797 91.1823 249.68C91.2996 249.563 91.4489 249.504 91.6303 249.504C91.8116 249.504 91.9609 249.563 92.0783 249.68C92.1956 249.797 92.2543 249.947 92.2543 250.128V255.12H94.7823V256.24H92.2543V261.376C92.2543 261.557 92.1956 261.707 92.0783 261.824C91.9609 261.941 91.8116 262 91.6303 262ZM101.97 262C101.778 262 101.624 261.947 101.506 261.84C101.4 261.723 101.346 261.568 101.346 261.376V253.856C101.357 253.675 101.416 253.531 101.522 253.424C101.64 253.307 101.789 253.248 101.97 253.248C102.152 253.248 102.296 253.307 102.402 253.424C102.52 253.531 102.578 253.68 102.578 253.872V256.912H105.954V257.136C106.509 257.136 107 257.237 107.426 257.44C107.864 257.643 108.2 257.925 108.434 258.288C108.68 258.64 108.802 259.045 108.802 259.504C108.802 259.995 108.68 260.427 108.434 260.8C108.2 261.173 107.864 261.467 107.426 261.68C107 261.893 106.509 262 105.954 262H101.97ZM102.578 260.864H105.954C106.434 260.864 106.829 260.741 107.138 260.496C107.448 260.251 107.602 259.899 107.602 259.44C107.602 258.96 107.448 258.597 107.138 258.352C106.829 258.096 106.434 257.968 105.954 257.968H102.578V260.864ZM104.37 257.6V256.912H105.954C106.328 256.912 106.632 256.789 106.866 256.544C107.101 256.299 107.218 255.984 107.218 255.6C107.218 255.259 107.09 254.971 106.834 254.736C106.589 254.491 106.274 254.368 105.89 254.368H101.986V253.248H105.89C106.381 253.248 106.813 253.349 107.186 253.552C107.57 253.744 107.869 254.011 108.082 254.352C108.306 254.693 108.418 255.088 108.418 255.536C108.418 256.229 108.184 256.747 107.714 257.088C107.256 257.429 106.669 257.6 105.954 257.6H104.37ZM114.749 262.08C113.928 262.08 113.192 261.888 112.541 261.504C111.89 261.109 111.373 260.576 110.989 259.904C110.616 259.232 110.429 258.475 110.429 257.632C110.429 256.779 110.621 256.016 111.005 255.344C111.4 254.672 111.933 254.144 112.605 253.76C113.277 253.365 114.034 253.168 114.877 253.168C115.72 253.168 116.472 253.365 117.133 253.76C117.805 254.144 118.333 254.672 118.717 255.344C119.112 256.016 119.314 256.779 119.325 257.632L118.829 258.016C118.829 258.784 118.648 259.477 118.285 260.096C117.933 260.704 117.448 261.189 116.829 261.552C116.221 261.904 115.528 262.08 114.749 262.08ZM114.877 260.96C115.496 260.96 116.045 260.816 116.525 260.528C117.016 260.24 117.4 259.845 117.677 259.344C117.965 258.832 118.109 258.261 118.109 257.632C118.109 256.992 117.965 256.421 117.677 255.92C117.4 255.419 117.016 255.024 116.525 254.736C116.045 254.437 115.496 254.288 114.877 254.288C114.269 254.288 113.72 254.437 113.229 254.736C112.738 255.024 112.349 255.419 112.061 255.92C111.773 256.421 111.629 256.992 111.629 257.632C111.629 258.261 111.773 258.832 112.061 259.344C112.349 259.845 112.738 260.24 113.229 260.528C113.72 260.816 114.269 260.96 114.877 260.96ZM118.701 262C118.52 262 118.37 261.947 118.253 261.84C118.136 261.723 118.077 261.573 118.077 261.392V258.656L118.381 257.392L119.325 257.632V261.392C119.325 261.573 119.266 261.723 119.149 261.84C119.032 261.947 118.882 262 118.701 262ZM124.985 253.248C125.113 253.248 125.231 253.28 125.337 253.344C125.444 253.408 125.529 253.515 125.593 253.664L129.065 261.216C129.14 261.365 129.145 261.509 129.081 261.648C129.028 261.776 128.927 261.877 128.777 261.952C128.607 262.027 128.452 262.043 128.313 262C128.175 261.947 128.063 261.84 127.977 261.68L124.665 254.304H125.385L122.009 261.664C121.935 261.824 121.817 261.931 121.657 261.984C121.508 262.027 121.353 262.011 121.193 261.936C121.044 261.861 120.937 261.76 120.873 261.632C120.82 261.493 120.825 261.349 120.889 261.2L124.409 253.664C124.537 253.387 124.729 253.248 124.985 253.248ZM134.936 262.096C134.178 262.096 133.501 261.941 132.904 261.632C132.306 261.312 131.832 260.848 131.48 260.24C131.138 259.632 130.968 258.891 130.968 258.016V253.856C130.968 253.685 131.026 253.541 131.144 253.424C131.261 253.307 131.405 253.248 131.576 253.248C131.757 253.248 131.906 253.307 132.024 253.424C132.141 253.541 132.2 253.685 132.2 253.856V258.016C132.2 258.677 132.322 259.221 132.568 259.648C132.824 260.075 133.165 260.395 133.592 260.608C134.029 260.821 134.52 260.928 135.064 260.928C135.586 260.928 136.056 260.827 136.472 260.624C136.898 260.421 137.234 260.144 137.48 259.792C137.725 259.44 137.848 259.04 137.848 258.592H138.727C138.696 259.264 138.509 259.867 138.168 260.4C137.837 260.923 137.389 261.339 136.824 261.648C136.258 261.947 135.629 262.096 134.936 262.096ZM138.456 262C138.274 262 138.125 261.947 138.008 261.84C137.901 261.723 137.848 261.568 137.848 261.376V253.856C137.848 253.675 137.901 253.531 138.008 253.424C138.125 253.307 138.274 253.248 138.456 253.248C138.637 253.248 138.786 253.307 138.904 253.424C139.021 253.531 139.08 253.675 139.08 253.856V261.376C139.08 261.568 139.021 261.723 138.904 261.84C138.786 261.947 138.637 262 138.456 262ZM147.156 262.08V260.96C147.785 260.96 148.34 260.821 148.82 260.544C149.31 260.256 149.694 259.861 149.972 259.36C150.249 258.859 150.388 258.283 150.388 257.632C150.388 256.981 150.249 256.405 149.972 255.904C149.694 255.403 149.31 255.008 148.82 254.72C148.34 254.432 147.785 254.288 147.156 254.288V253.168C148.02 253.168 148.782 253.36 149.444 253.744C150.116 254.128 150.644 254.656 151.028 255.328C151.412 255.989 151.604 256.757 151.604 257.632C151.604 258.496 151.412 259.264 151.028 259.936C150.654 260.597 150.132 261.12 149.46 261.504C148.788 261.888 148.02 262.08 147.156 262.08ZM145.924 262.08C145.049 262.08 144.276 261.888 143.604 261.504C142.942 261.12 142.425 260.597 142.052 259.936C141.678 259.264 141.492 258.496 141.492 257.632C141.492 256.757 141.678 255.989 142.052 255.328C142.425 254.656 142.942 254.128 143.604 253.744C144.276 253.36 145.049 253.168 145.924 253.168V254.288C145.294 254.288 144.734 254.432 144.244 254.72C143.764 255.008 143.385 255.403 143.108 255.904C142.83 256.405 142.692 256.981 142.692 257.632C142.692 258.283 142.83 258.859 143.108 259.36C143.385 259.861 143.764 260.256 144.244 260.544C144.734 260.821 145.294 260.96 145.924 260.96V262.08ZM146.532 265.744C146.35 265.744 146.201 265.685 146.084 265.568C145.977 265.461 145.924 265.312 145.924 265.12V250.128C145.924 249.936 145.977 249.787 146.084 249.68C146.201 249.563 146.35 249.504 146.532 249.504C146.724 249.504 146.873 249.563 146.98 249.68C147.097 249.787 147.156 249.936 147.156 250.128V265.12C147.156 265.312 147.097 265.461 146.98 265.568C146.873 265.685 146.724 265.744 146.532 265.744ZM157.811 262.096C157.053 262.096 156.376 261.941 155.779 261.632C155.181 261.312 154.707 260.848 154.355 260.24C154.013 259.632 153.843 258.891 153.843 258.016V253.856C153.843 253.685 153.901 253.541 154.019 253.424C154.136 253.307 154.28 253.248 154.451 253.248C154.632 253.248 154.781 253.307 154.899 253.424C155.016 253.541 155.075 253.685 155.075 253.856V258.016C155.075 258.677 155.197 259.221 155.443 259.648C155.699 260.075 156.04 260.395 156.467 260.608C156.904 260.821 157.395 260.928 157.939 260.928C158.461 260.928 158.931 260.827 159.347 260.624C159.773 260.421 160.109 260.144 160.355 259.792C160.6 259.44 160.723 259.04 160.723 258.592H161.602C161.571 259.264 161.384 259.867 161.043 260.4C160.712 260.923 160.264 261.339 159.699 261.648C159.133 261.947 158.504 262.096 157.811 262.096ZM161.331 262C161.149 262 161 261.947 160.883 261.84C160.776 261.723 160.723 261.568 160.723 261.376V253.856C160.723 253.675 160.776 253.531 160.883 253.424C161 253.307 161.149 253.248 161.331 253.248C161.512 253.248 161.661 253.307 161.779 253.424C161.896 253.531 161.955 253.675 161.955 253.856V261.376C161.955 261.568 161.896 261.723 161.779 261.84C161.661 261.947 161.512 262 161.331 262ZM168.639 262.096C167.86 262.096 167.172 261.925 166.575 261.584C165.977 261.232 165.508 260.747 165.167 260.128C164.836 259.509 164.671 258.805 164.671 258.016V253.856C164.671 253.675 164.724 253.531 164.831 253.424C164.948 253.307 165.097 253.248 165.279 253.248C165.46 253.248 165.609 253.307 165.727 253.424C165.844 253.531 165.903 253.675 165.903 253.856V258.016C165.903 258.581 166.025 259.083 166.271 259.52C166.516 259.957 166.852 260.304 167.279 260.56C167.705 260.805 168.201 260.928 168.767 260.928C169.311 260.928 169.791 260.832 170.207 260.64C170.623 260.437 170.948 260.16 171.183 259.808C171.428 259.456 171.551 259.051 171.551 258.592L172.271 258.624C172.249 259.296 172.079 259.899 171.759 260.432C171.439 260.955 171.007 261.365 170.463 261.664C169.929 261.952 169.321 262.096 168.639 262.096ZM173.759 264.736C173.577 264.736 173.428 264.677 173.311 264.56C173.204 264.453 173.151 264.304 173.151 264.112V262H172.751C172.324 262 172.015 261.904 171.823 261.712C171.641 261.52 171.551 261.216 171.551 260.8V253.856C171.551 253.675 171.604 253.531 171.711 253.424C171.828 253.307 171.977 253.248 172.159 253.248C172.34 253.248 172.489 253.307 172.607 253.424C172.724 253.531 172.783 253.675 172.783 253.856V260.928H173.711C173.903 260.928 174.052 260.987 174.159 261.104C174.276 261.211 174.335 261.36 174.335 261.552V264.112C174.335 264.304 174.281 264.453 174.175 264.56C174.079 264.677 173.94 264.736 173.759 264.736ZM179.92 262.096C179.163 262.096 178.485 261.941 177.888 261.632C177.291 261.312 176.816 260.848 176.464 260.24C176.123 259.632 175.952 258.891 175.952 258.016V253.856C175.952 253.685 176.011 253.541 176.128 253.424C176.245 253.307 176.389 253.248 176.56 253.248C176.741 253.248 176.891 253.307 177.008 253.424C177.125 253.541 177.184 253.685 177.184 253.856V258.016C177.184 258.677 177.307 259.221 177.552 259.648C177.808 260.075 178.149 260.395 178.576 260.608C179.013 260.821 179.504 260.928 180.048 260.928C180.571 260.928 181.04 260.827 181.456 260.624C181.883 260.421 182.219 260.144 182.464 259.792C182.709 259.44 182.832 259.04 182.832 258.592H183.712C183.68 259.264 183.493 259.867 183.152 260.4C182.821 260.923 182.373 261.339 181.808 261.648C181.243 261.947 180.613 262.096 179.92 262.096ZM183.44 262C183.259 262 183.109 261.947 182.992 261.84C182.885 261.723 182.832 261.568 182.832 261.376V253.856C182.832 253.675 182.885 253.531 182.992 253.424C183.109 253.307 183.259 253.248 183.44 253.248C183.621 253.248 183.771 253.307 183.888 253.424C184.005 253.531 184.064 253.675 184.064 253.856V261.376C184.064 261.568 184.005 261.723 183.888 261.84C183.771 261.947 183.621 262 183.44 262ZM187.564 265.744C187.372 265.744 187.217 265.685 187.1 265.568C186.993 265.461 186.94 265.312 186.94 265.12V257.568C186.951 256.736 187.148 255.989 187.532 255.328C187.927 254.656 188.455 254.128 189.116 253.744C189.788 253.36 190.54 253.168 191.372 253.168C192.225 253.168 192.988 253.365 193.66 253.76C194.332 254.144 194.86 254.672 195.244 255.344C195.639 256.016 195.836 256.779 195.836 257.632C195.836 258.475 195.644 259.232 195.26 259.904C194.887 260.576 194.375 261.109 193.724 261.504C193.073 261.888 192.337 262.08 191.516 262.08C190.801 262.08 190.151 261.931 189.564 261.632C188.988 261.323 188.524 260.917 188.172 260.416V265.12C188.172 265.312 188.113 265.461 187.996 265.568C187.889 265.685 187.745 265.744 187.564 265.744ZM191.372 260.96C191.991 260.96 192.545 260.816 193.036 260.528C193.527 260.24 193.911 259.845 194.188 259.344C194.476 258.832 194.62 258.261 194.62 257.632C194.62 256.992 194.476 256.421 194.188 255.92C193.911 255.419 193.527 255.024 193.036 254.736C192.545 254.437 191.991 254.288 191.372 254.288C190.764 254.288 190.215 254.437 189.724 254.736C189.233 255.024 188.849 255.419 188.572 255.92C188.295 256.421 188.156 256.992 188.156 257.632C188.156 258.261 188.295 258.832 188.572 259.344C188.849 259.845 189.233 260.24 189.724 260.528C190.215 260.816 190.764 260.96 191.372 260.96ZM202.237 262.08C201.383 262.08 200.621 261.888 199.949 261.504C199.277 261.12 198.749 260.592 198.365 259.92C197.981 259.248 197.789 258.485 197.789 257.632C197.789 256.768 197.981 256 198.365 255.328C198.749 254.656 199.277 254.128 199.949 253.744C200.621 253.36 201.383 253.168 202.237 253.168C203.09 253.168 203.847 253.36 204.509 253.744C205.181 254.128 205.709 254.656 206.093 255.328C206.477 256 206.674 256.768 206.685 257.632C206.685 258.485 206.487 259.248 206.093 259.92C205.709 260.592 205.181 261.12 204.509 261.504C203.847 261.888 203.09 262.08 202.237 262.08ZM202.237 260.96C202.855 260.96 203.41 260.816 203.901 260.528C204.391 260.24 204.775 259.845 205.053 259.344C205.33 258.843 205.469 258.272 205.469 257.632C205.469 256.992 205.33 256.421 205.053 255.92C204.775 255.408 204.391 255.008 203.901 254.72C203.41 254.432 202.855 254.288 202.237 254.288C201.618 254.288 201.063 254.432 200.573 254.72C200.082 255.008 199.693 255.408 199.405 255.92C199.127 256.421 198.989 256.992 198.989 257.632C198.989 258.272 199.127 258.843 199.405 259.344C199.693 259.845 200.082 260.24 200.573 260.528C201.063 260.816 201.618 260.96 202.237 260.96ZM209.705 262C209.513 262 209.358 261.947 209.241 261.84C209.134 261.723 209.081 261.568 209.081 261.376V253.856C209.091 253.675 209.15 253.531 209.257 253.424C209.374 253.307 209.523 253.248 209.705 253.248C209.886 253.248 210.03 253.307 210.137 253.424C210.254 253.531 210.313 253.68 210.313 253.872V256.912H213.689V257.136C214.243 257.136 214.734 257.237 215.161 257.44C215.598 257.643 215.934 257.925 216.169 258.288C216.414 258.64 216.537 259.045 216.537 259.504C216.537 259.995 216.414 260.427 216.169 260.8C215.934 261.173 215.598 261.467 215.161 261.68C214.734 261.893 214.243 262 213.689 262H209.705ZM210.313 260.864H213.689C214.169 260.864 214.563 260.741 214.873 260.496C215.182 260.251 215.337 259.899 215.337 259.44C215.337 258.96 215.182 258.597 214.873 258.352C214.563 258.096 214.169 257.968 213.689 257.968H210.313V260.864ZM212.105 257.6V256.912H213.689C214.062 256.912 214.366 256.789 214.601 256.544C214.835 256.299 214.953 255.984 214.953 255.6C214.953 255.259 214.825 254.971 214.569 254.736C214.323 254.491 214.009 254.368 213.625 254.368H209.721V253.248H213.625C214.115 253.248 214.547 253.349 214.921 253.552C215.305 253.744 215.603 254.011 215.817 254.352C216.041 254.693 216.153 255.088 216.153 255.536C216.153 256.229 215.918 256.747 215.449 257.088C214.99 257.429 214.403 257.6 213.689 257.6H212.105ZM222.484 262.08C221.662 262.08 220.926 261.888 220.276 261.504C219.625 261.109 219.107 260.576 218.724 259.904C218.35 259.232 218.164 258.475 218.164 257.632C218.164 256.779 218.356 256.016 218.74 255.344C219.134 254.672 219.668 254.144 220.34 253.76C221.012 253.365 221.769 253.168 222.612 253.168C223.454 253.168 224.206 253.365 224.868 253.76C225.54 254.144 226.068 254.672 226.452 255.344C226.846 256.016 227.049 256.779 227.06 257.632L226.564 258.016C226.564 258.784 226.382 259.477 226.02 260.096C225.668 260.704 225.182 261.189 224.564 261.552C223.956 261.904 223.262 262.08 222.484 262.08ZM222.612 260.96C223.23 260.96 223.78 260.816 224.26 260.528C224.75 260.24 225.134 259.845 225.411 259.344C225.7 258.832 225.844 258.261 225.844 257.632C225.844 256.992 225.7 256.421 225.411 255.92C225.134 255.419 224.75 255.024 224.26 254.736C223.78 254.437 223.23 254.288 222.612 254.288C222.004 254.288 221.454 254.437 220.964 254.736C220.473 255.024 220.084 255.419 219.796 255.92C219.508 256.421 219.364 256.992 219.364 257.632C219.364 258.261 219.508 258.832 219.796 259.344C220.084 259.845 220.473 260.24 220.964 260.528C221.454 260.816 222.004 260.96 222.612 260.96ZM226.436 262C226.254 262 226.105 261.947 225.988 261.84C225.87 261.723 225.812 261.573 225.812 261.392V258.656L226.116 257.392L227.06 257.632V261.392C227.06 261.573 227.001 261.723 226.884 261.84C226.766 261.947 226.617 262 226.436 262ZM236.944 262C236.762 262 236.613 261.947 236.496 261.84C236.378 261.723 236.32 261.568 236.32 261.376V253.872C236.32 253.68 236.378 253.531 236.496 253.424C236.613 253.307 236.762 253.248 236.944 253.248C237.125 253.248 237.269 253.307 237.376 253.424C237.482 253.531 237.536 253.68 237.536 253.872V261.376C237.536 261.568 237.482 261.723 237.376 261.84C237.269 261.947 237.125 262 236.944 262ZM230.064 262C229.882 262 229.733 261.947 229.616 261.84C229.509 261.723 229.456 261.568 229.456 261.376V253.872C229.456 253.68 229.509 253.531 229.616 253.424C229.733 253.307 229.882 253.248 230.064 253.248C230.245 253.248 230.389 253.307 230.496 253.424C230.613 253.531 230.672 253.68 230.672 253.872V261.376C230.672 261.568 230.613 261.723 230.496 261.84C230.389 261.947 230.245 262 230.064 262ZM230.464 258.144V257.04H236.752V258.144H230.464ZM247.897 262C247.715 262 247.566 261.947 247.449 261.84C247.331 261.723 247.273 261.568 247.273 261.376V253.872C247.273 253.68 247.331 253.531 247.449 253.424C247.566 253.307 247.715 253.248 247.897 253.248C248.078 253.248 248.222 253.307 248.329 253.424C248.435 253.531 248.489 253.68 248.489 253.872V261.376C248.489 261.568 248.435 261.723 248.329 261.84C248.222 261.947 248.078 262 247.897 262ZM241.017 262C240.835 262 240.686 261.947 240.569 261.84C240.462 261.723 240.409 261.568 240.409 261.376V253.872C240.409 253.68 240.462 253.531 240.569 253.424C240.686 253.307 240.835 253.248 241.017 253.248C241.198 253.248 241.342 253.307 241.449 253.424C241.566 253.531 241.625 253.68 241.625 253.872V261.376C241.625 261.568 241.566 261.723 241.449 261.84C241.342 261.947 241.198 262 241.017 262ZM241.417 258.144V257.04H247.705V258.144H241.417ZM254.898 262.16C254.205 262.16 253.591 262.021 253.058 261.744C252.535 261.467 252.119 261.083 251.81 260.592C251.511 260.101 251.362 259.536 251.362 258.896V253.856C251.373 253.675 251.431 253.531 251.538 253.424C251.655 253.307 251.805 253.248 251.986 253.248C252.167 253.248 252.311 253.307 252.418 253.424C252.535 253.531 252.594 253.68 252.594 253.872V256.144H254.962C255.602 256.144 256.167 256.267 256.658 256.512C257.159 256.747 257.549 257.088 257.826 257.536C258.103 257.973 258.242 258.496 258.242 259.104C258.242 259.723 258.098 260.261 257.81 260.72C257.533 261.179 257.138 261.536 256.626 261.792C256.125 262.037 255.549 262.16 254.898 262.16ZM254.898 261.024C255.517 261.024 256.029 260.864 256.434 260.544C256.839 260.224 257.042 259.744 257.042 259.104C257.042 258.464 256.845 257.989 256.45 257.68C256.066 257.371 255.57 257.216 254.962 257.216H252.594V258.896C252.594 259.515 252.807 260.027 253.234 260.432C253.671 260.827 254.226 261.024 254.898 261.024ZM260.242 262C260.061 262 259.911 261.947 259.794 261.84C259.687 261.723 259.634 261.568 259.634 261.376V253.872C259.634 253.68 259.687 253.531 259.794 253.424C259.911 253.307 260.061 253.248 260.242 253.248C260.434 253.248 260.583 253.307 260.69 253.424C260.807 253.531 260.866 253.68 260.866 253.872V261.376C260.866 261.568 260.807 261.723 260.69 261.84C260.583 261.947 260.434 262 260.242 262ZM269.38 262C269.252 262 269.145 261.979 269.06 261.936C268.985 261.893 268.905 261.819 268.82 261.712L266.052 258.192L265.572 257.776L262.788 254.24C262.671 254.101 262.612 253.957 262.612 253.808C262.623 253.659 262.676 253.531 262.772 253.424C262.868 253.307 263.007 253.248 263.188 253.248C263.369 253.248 263.524 253.312 263.652 253.44L266.34 256.88L266.772 257.232L269.748 261.04C269.887 261.211 269.945 261.371 269.924 261.52C269.903 261.669 269.833 261.787 269.716 261.872C269.609 261.957 269.497 262 269.38 262ZM263.044 262C262.873 262 262.735 261.947 262.628 261.84C262.532 261.733 262.479 261.605 262.468 261.456C262.468 261.307 262.527 261.163 262.644 261.024L265.588 257.344L266.276 258.256L263.476 261.808C263.38 261.936 263.236 262 263.044 262ZM266.788 257.84L266.004 257.04L268.772 253.536C268.847 253.429 268.927 253.355 269.012 253.312C269.108 253.269 269.204 253.248 269.3 253.248C269.481 253.248 269.62 253.307 269.716 253.424C269.812 253.531 269.855 253.664 269.844 253.824C269.844 253.973 269.791 254.117 269.684 254.256L266.788 257.84ZM127.274 280.08C126.431 280.08 125.679 279.888 125.018 279.504C124.367 279.109 123.85 278.576 123.466 277.904C123.092 277.232 122.906 276.475 122.906 275.632C122.906 274.779 123.087 274.016 123.45 273.344C123.812 272.672 124.308 272.144 124.938 271.76C125.567 271.365 126.292 271.168 127.114 271.168C127.764 271.168 128.362 271.296 128.906 271.552C129.46 271.808 129.946 272.192 130.362 272.704C130.479 272.832 130.522 272.971 130.49 273.12C130.458 273.259 130.367 273.381 130.218 273.488C130.1 273.573 129.967 273.605 129.818 273.584C129.679 273.552 129.556 273.472 129.45 273.344C128.831 272.64 128.052 272.288 127.114 272.288C126.516 272.288 125.988 272.432 125.53 272.72C125.082 273.008 124.73 273.403 124.474 273.904C124.228 274.405 124.106 274.981 124.106 275.632C124.106 276.272 124.239 276.843 124.506 277.344C124.772 277.845 125.146 278.24 125.626 278.528C126.106 278.816 126.655 278.96 127.274 278.96C127.69 278.96 128.068 278.907 128.41 278.8C128.762 278.683 129.071 278.507 129.338 278.272C129.466 278.165 129.599 278.107 129.738 278.096C129.876 278.085 130.004 278.128 130.122 278.224C130.25 278.341 130.319 278.475 130.33 278.624C130.351 278.773 130.303 278.901 130.186 279.008C129.407 279.723 128.436 280.08 127.274 280.08ZM136.869 280.08C136.016 280.08 135.253 279.888 134.581 279.504C133.909 279.12 133.381 278.592 132.997 277.92C132.613 277.248 132.421 276.485 132.421 275.632C132.421 274.768 132.613 274 132.997 273.328C133.381 272.656 133.909 272.128 134.581 271.744C135.253 271.36 136.016 271.168 136.869 271.168C137.723 271.168 138.48 271.36 139.141 271.744C139.813 272.128 140.341 272.656 140.725 273.328C141.109 274 141.307 274.768 141.317 275.632C141.317 276.485 141.12 277.248 140.725 277.92C140.341 278.592 139.813 279.12 139.141 279.504C138.48 279.888 137.723 280.08 136.869 280.08ZM136.869 278.96C137.488 278.96 138.043 278.816 138.533 278.528C139.024 278.24 139.408 277.845 139.685 277.344C139.963 276.843 140.101 276.272 140.101 275.632C140.101 274.992 139.963 274.421 139.685 273.92C139.408 273.408 139.024 273.008 138.533 272.72C138.043 272.432 137.488 272.288 136.869 272.288C136.251 272.288 135.696 272.432 135.205 272.72C134.715 273.008 134.325 273.408 134.037 273.92C133.76 274.421 133.621 274.992 133.621 275.632C133.621 276.272 133.76 276.843 134.037 277.344C134.325 277.845 134.715 278.24 135.205 278.528C135.696 278.816 136.251 278.96 136.869 278.96ZM155.537 280C155.356 280 155.207 279.947 155.089 279.84C154.972 279.723 154.913 279.573 154.913 279.392V274.784C154.913 274.027 154.716 273.429 154.321 272.992C153.927 272.544 153.42 272.32 152.801 272.32C152.14 272.32 151.596 272.544 151.169 272.992C150.753 273.429 150.551 274.016 150.561 274.752H149.457C149.468 274.037 149.623 273.408 149.921 272.864C150.22 272.32 150.631 271.899 151.153 271.6C151.676 271.301 152.268 271.152 152.929 271.152C153.559 271.152 154.113 271.301 154.593 271.6C155.084 271.899 155.463 272.32 155.729 272.864C156.007 273.408 156.145 274.048 156.145 274.784V279.392C156.145 279.573 156.087 279.723 155.969 279.84C155.863 279.947 155.719 280 155.537 280ZM144.337 280C144.145 280 143.991 279.947 143.873 279.84C143.767 279.723 143.713 279.573 143.713 279.392V271.872C143.713 271.691 143.767 271.541 143.873 271.424C143.991 271.307 144.145 271.248 144.337 271.248C144.519 271.248 144.663 271.307 144.769 271.424C144.887 271.541 144.945 271.691 144.945 271.872V279.392C144.945 279.573 144.887 279.723 144.769 279.84C144.663 279.947 144.519 280 144.337 280ZM149.953 280C149.772 280 149.623 279.947 149.505 279.84C149.388 279.723 149.329 279.573 149.329 279.392V274.784C149.329 274.027 149.132 273.429 148.737 272.992C148.343 272.544 147.836 272.32 147.217 272.32C146.556 272.32 146.012 272.539 145.585 272.976C145.159 273.403 144.945 273.963 144.945 274.656H144.065C144.087 273.973 144.236 273.371 144.513 272.848C144.801 272.315 145.191 271.899 145.681 271.6C146.172 271.301 146.727 271.152 147.345 271.152C147.975 271.152 148.529 271.301 149.009 271.6C149.5 271.899 149.879 272.32 150.145 272.864C150.423 273.408 150.561 274.048 150.561 274.784V279.392C150.561 279.573 150.503 279.723 150.385 279.84C150.279 279.947 150.135 280 149.953 280ZM159.494 283.744C159.302 283.744 159.147 283.685 159.03 283.568C158.923 283.461 158.87 283.312 158.87 283.12V275.568C158.88 274.736 159.078 273.989 159.462 273.328C159.856 272.656 160.384 272.128 161.046 271.744C161.718 271.36 162.47 271.168 163.302 271.168C164.155 271.168 164.918 271.365 165.59 271.76C166.262 272.144 166.79 272.672 167.174 273.344C167.568 274.016 167.766 274.779 167.766 275.632C167.766 276.475 167.574 277.232 167.19 277.904C166.816 278.576 166.304 279.109 165.654 279.504C165.003 279.888 164.267 280.08 163.446 280.08C162.731 280.08 162.08 279.931 161.494 279.632C160.918 279.323 160.454 278.917 160.102 278.416V283.12C160.102 283.312 160.043 283.461 159.926 283.568C159.819 283.685 159.675 283.744 159.494 283.744ZM163.302 278.96C163.92 278.96 164.475 278.816 164.966 278.528C165.456 278.24 165.84 277.845 166.118 277.344C166.406 276.832 166.55 276.261 166.55 275.632C166.55 274.992 166.406 274.421 166.118 273.92C165.84 273.419 165.456 273.024 164.966 272.736C164.475 272.437 163.92 272.288 163.302 272.288C162.694 272.288 162.144 272.437 161.654 272.736C161.163 273.024 160.779 273.419 160.502 273.92C160.224 274.421 160.086 274.992 160.086 275.632C160.086 276.261 160.224 276.832 160.502 277.344C160.779 277.845 161.163 278.24 161.654 278.528C162.144 278.816 162.694 278.96 163.302 278.96ZM169.634 283.824C169.399 283.835 169.164 283.803 168.93 283.728C168.706 283.664 168.482 283.568 168.258 283.44C168.087 283.333 167.98 283.195 167.938 283.024C167.884 282.864 167.916 282.709 168.034 282.56C168.14 282.421 168.268 282.347 168.418 282.336C168.578 282.336 168.743 282.379 168.914 282.464C169.031 282.539 169.148 282.592 169.266 282.624C169.383 282.656 169.516 282.672 169.666 282.672C170.018 282.661 170.354 282.496 170.674 282.176C171.004 281.856 171.303 281.392 171.57 280.784L175.554 271.584C175.618 271.424 175.724 271.317 175.874 271.264C176.034 271.2 176.194 271.205 176.354 271.28C176.503 271.344 176.599 271.451 176.642 271.6C176.695 271.749 176.684 271.909 176.61 272.08L172.61 281.264C172.268 282.032 171.836 282.651 171.314 283.12C170.802 283.589 170.242 283.824 169.634 283.824ZM172.978 279.728C172.818 279.803 172.668 279.819 172.53 279.776C172.391 279.723 172.279 279.616 172.194 279.456L168.626 272.064C168.551 271.904 168.54 271.755 168.594 271.616C168.647 271.477 168.754 271.371 168.914 271.296C169.074 271.221 169.223 271.211 169.362 271.264C169.5 271.307 169.607 271.408 169.682 271.568L173.202 278.928C173.276 279.088 173.298 279.243 173.266 279.392C173.234 279.541 173.138 279.653 172.978 279.728ZM182.194 280.08C181.352 280.08 180.605 279.893 179.954 279.52C179.304 279.136 178.792 278.608 178.418 277.936C178.056 277.264 177.874 276.496 177.874 275.632C177.874 274.757 178.066 273.984 178.45 273.312C178.834 272.64 179.362 272.117 180.034 271.744C180.706 271.36 181.469 271.168 182.322 271.168C183.186 271.168 183.949 271.36 184.61 271.744C185.282 272.117 185.805 272.64 186.178 273.312C186.562 273.984 186.76 274.757 186.77 275.632L186.05 276.016C186.05 276.805 185.885 277.509 185.554 278.128C185.224 278.736 184.765 279.216 184.178 279.568C183.602 279.909 182.941 280.08 182.194 280.08ZM182.354 283.456C181.512 283.456 180.77 283.296 180.13 282.976C179.49 282.667 178.962 282.24 178.546 281.696C178.429 281.568 178.376 281.429 178.386 281.28C178.408 281.131 178.488 281.008 178.626 280.912C178.765 280.816 178.92 280.784 179.09 280.816C179.261 280.848 179.394 280.928 179.49 281.056C179.8 281.44 180.194 281.749 180.674 281.984C181.165 282.219 181.73 282.336 182.37 282.336C182.968 282.336 183.506 282.192 183.986 281.904C184.466 281.616 184.845 281.211 185.122 280.688C185.41 280.165 185.554 279.552 185.554 278.848V276.416L186.018 275.488L186.77 275.632V278.896C186.77 279.76 186.578 280.533 186.194 281.216C185.81 281.909 185.288 282.453 184.626 282.848C183.965 283.253 183.208 283.456 182.354 283.456ZM182.322 278.96C182.952 278.96 183.506 278.821 183.986 278.544C184.477 278.256 184.861 277.861 185.138 277.36C185.416 276.859 185.554 276.283 185.554 275.632C185.554 274.981 185.416 274.405 185.138 273.904C184.861 273.392 184.477 272.997 183.986 272.72C183.506 272.432 182.952 272.288 182.322 272.288C181.693 272.288 181.133 272.432 180.642 272.72C180.152 272.997 179.768 273.392 179.49 273.904C179.213 274.405 179.074 274.981 179.074 275.632C179.074 276.283 179.213 276.859 179.49 277.36C179.768 277.861 180.152 278.256 180.642 278.544C181.133 278.821 181.693 278.96 182.322 278.96ZM196.655 280C196.473 280 196.324 279.947 196.207 279.84C196.089 279.723 196.031 279.568 196.031 279.376V271.872C196.031 271.68 196.089 271.531 196.207 271.424C196.324 271.307 196.473 271.248 196.655 271.248C196.836 271.248 196.98 271.307 197.087 271.424C197.193 271.531 197.247 271.68 197.247 271.872V279.376C197.247 279.568 197.193 279.723 197.087 279.84C196.98 279.947 196.836 280 196.655 280ZM189.775 280C189.593 280 189.444 279.947 189.327 279.84C189.22 279.723 189.167 279.568 189.167 279.376V271.872C189.167 271.68 189.22 271.531 189.327 271.424C189.444 271.307 189.593 271.248 189.775 271.248C189.956 271.248 190.1 271.307 190.207 271.424C190.324 271.531 190.383 271.68 190.383 271.872V279.376C190.383 279.568 190.324 279.723 190.207 279.84C190.1 279.947 189.956 280 189.775 280ZM190.175 276.144V275.04H196.463V276.144H190.175ZM203.928 280.096C203.17 280.096 202.493 279.941 201.896 279.632C201.298 279.312 200.824 278.848 200.472 278.24C200.13 277.632 199.96 276.891 199.96 276.016V271.856C199.96 271.685 200.018 271.541 200.136 271.424C200.253 271.307 200.397 271.248 200.568 271.248C200.749 271.248 200.898 271.307 201.016 271.424C201.133 271.541 201.192 271.685 201.192 271.856V276.016C201.192 276.677 201.314 277.221 201.56 277.648C201.816 278.075 202.157 278.395 202.584 278.608C203.021 278.821 203.512 278.928 204.056 278.928C204.578 278.928 205.048 278.827 205.464 278.624C205.89 278.421 206.226 278.144 206.472 277.792C206.717 277.44 206.84 277.04 206.84 276.592H207.72C207.688 277.264 207.501 277.867 207.16 278.4C206.829 278.923 206.381 279.339 205.816 279.648C205.25 279.947 204.621 280.096 203.928 280.096ZM207.448 280C207.266 280 207.117 279.947 207 279.84C206.893 279.723 206.84 279.568 206.84 279.376V271.856C206.84 271.675 206.893 271.531 207 271.424C207.117 271.307 207.266 271.248 207.448 271.248C207.629 271.248 207.778 271.307 207.896 271.424C208.013 271.531 208.072 271.675 208.072 271.856V279.376C208.072 279.568 208.013 279.723 207.896 279.84C207.778 279.947 207.629 280 207.448 280ZM217.748 279.84C217.641 279.947 217.497 280 217.316 280C217.145 280 217.006 279.941 216.9 279.824L213.076 275.632L216.74 271.44C216.846 271.323 216.98 271.259 217.14 271.248C217.3 271.237 217.438 271.28 217.556 271.376C217.684 271.493 217.753 271.627 217.764 271.776C217.774 271.915 217.726 272.048 217.62 272.176L214.612 275.568L217.78 279.056C217.886 279.173 217.94 279.307 217.94 279.456C217.94 279.595 217.876 279.723 217.748 279.84ZM211.54 280C211.358 280 211.214 279.947 211.108 279.84C211.001 279.723 210.948 279.573 210.948 279.392V271.872C210.948 271.68 211.001 271.531 211.108 271.424C211.214 271.307 211.358 271.248 211.54 271.248C211.732 271.248 211.881 271.307 211.988 271.424C212.105 271.531 212.164 271.68 212.164 271.872V275.04H214.116V276.16H212.164V279.392C212.164 279.573 212.105 279.723 211.988 279.84C211.881 279.947 211.732 280 211.54 280ZM223.119 280.08C222.266 280.08 221.503 279.888 220.831 279.504C220.159 279.12 219.631 278.592 219.247 277.92C218.863 277.248 218.671 276.485 218.671 275.632C218.671 274.768 218.863 274 219.247 273.328C219.631 272.656 220.159 272.128 220.831 271.744C221.503 271.36 222.266 271.168 223.119 271.168C223.973 271.168 224.73 271.36 225.391 271.744C226.063 272.128 226.591 272.656 226.975 273.328C227.359 274 227.557 274.768 227.567 275.632C227.567 276.485 227.37 277.248 226.975 277.92C226.591 278.592 226.063 279.12 225.391 279.504C224.73 279.888 223.973 280.08 223.119 280.08ZM223.119 278.96C223.738 278.96 224.293 278.816 224.783 278.528C225.274 278.24 225.658 277.845 225.935 277.344C226.213 276.843 226.351 276.272 226.351 275.632C226.351 274.992 226.213 274.421 225.935 273.92C225.658 273.408 225.274 273.008 224.783 272.72C224.293 272.432 223.738 272.288 223.119 272.288C222.501 272.288 221.946 272.432 221.455 272.72C220.965 273.008 220.575 273.408 220.287 273.92C220.01 274.421 219.871 274.992 219.871 275.632C219.871 276.272 220.01 276.843 220.287 277.344C220.575 277.845 220.965 278.24 221.455 278.528C221.946 278.816 222.501 278.96 223.119 278.96ZM230.587 280C230.395 280 230.241 279.947 230.123 279.84C230.017 279.723 229.963 279.568 229.963 279.376V271.856C229.974 271.675 230.033 271.531 230.139 271.424C230.257 271.307 230.406 271.248 230.587 271.248C230.769 271.248 230.913 271.307 231.019 271.424C231.137 271.531 231.195 271.68 231.195 271.872V274.912H234.571V275.136C235.126 275.136 235.617 275.237 236.043 275.44C236.481 275.643 236.817 275.925 237.051 276.288C237.297 276.64 237.419 277.045 237.419 277.504C237.419 277.995 237.297 278.427 237.051 278.8C236.817 279.173 236.481 279.467 236.043 279.68C235.617 279.893 235.126 280 234.571 280H230.587ZM231.195 278.864H234.571C235.051 278.864 235.446 278.741 235.755 278.496C236.065 278.251 236.219 277.899 236.219 277.44C236.219 276.96 236.065 276.597 235.755 276.352C235.446 276.096 235.051 275.968 234.571 275.968H231.195V278.864ZM232.987 275.6V274.912H234.571C234.945 274.912 235.249 274.789 235.483 274.544C235.718 274.299 235.835 273.984 235.835 273.6C235.835 273.259 235.707 272.971 235.451 272.736C235.206 272.491 234.891 272.368 234.507 272.368H230.603V271.248H234.507C234.998 271.248 235.43 271.349 235.803 271.552C236.187 271.744 236.486 272.011 236.699 272.352C236.923 272.693 237.035 273.088 237.035 273.536C237.035 274.229 236.801 274.747 236.331 275.088C235.873 275.429 235.286 275.6 234.571 275.6H232.987Z" fill="black"/>
<path d="M101.552 308L22 353.197L22 445.538L101.552 491.357L181.103 445.538L181.103 353.197L101.552 308Z" fill="black"/>
<path d="M59.16 372.288L64.152 372.96C64.152 368.4 64.872 362.544 70.968 362.544C74.904 362.544 78.216 365.664 78.216 372.72C78.216 379.584 75.24 381.168 69.528 383.136C63.816 385.104 59.352 386.688 59.352 396H84.12V391.44H60.648C61.896 386.64 65.352 385.44 69.768 383.904C75.384 381.936 82.92 379.872 82.92 372.72C82.92 365.568 77.64 361.92 70.968 361.92C65.112 361.92 59.16 364.896 59.16 372.288ZM113.081 362.544H88.2169V367.056H109.529L92.6329 396H93.5449L113.081 362.544ZM115.967 386.976C115.967 393.6 121.727 396.768 128.591 396.768C135.407 396.768 141.647 393.6 141.647 386.976C141.647 381.36 137.231 378.24 131.759 377.376C136.127 376.752 139.775 374.592 139.775 369.84C139.775 364.032 134.255 361.872 128.591 361.872C122.879 361.872 117.359 364.032 117.359 369.84C117.359 374.592 121.007 376.752 125.423 377.424C120.047 378.24 115.967 381.36 115.967 386.976ZM120.671 386.976C120.671 379.968 123.551 377.856 128.591 377.856C133.775 377.856 136.943 379.968 136.943 386.976C136.943 393.936 133.775 396.048 128.591 396.048C123.551 396.048 120.671 393.936 120.671 386.976ZM121.871 369.84C121.871 363.696 124.463 362.592 128.591 362.592C133.103 362.592 135.311 363.696 135.311 369.84C135.311 376.032 132.767 377.136 128.591 377.136C124.127 377.136 121.871 376.032 121.871 369.84Z" fill="white"/>
<path d="M55.5202 422.616L54.4482 422.104L59.0562 410.936C59.1842 410.648 59.3815 410.504 59.6482 410.504C59.9362 410.504 60.1389 410.648 60.2562 410.936L64.8642 422.12L63.8242 422.616L59.4722 411.944H59.8242L55.5202 422.616ZM54.0162 425.736C53.8242 425.736 53.6695 425.677 53.5522 425.56C53.4455 425.453 53.3922 425.304 53.3922 425.112V422.456C53.3922 422.264 53.4455 422.115 53.5522 422.008C53.6695 421.891 53.8242 421.832 54.0162 421.832H65.3442C65.5362 421.832 65.6855 421.891 65.7922 422.008C65.9095 422.115 65.9682 422.264 65.9682 422.456V425.112C65.9682 425.304 65.9095 425.453 65.7922 425.56C65.6855 425.677 65.5362 425.736 65.3442 425.736C65.1522 425.736 64.9975 425.677 64.8802 425.56C64.7735 425.453 64.7202 425.304 64.7202 425.112V423H54.6402V425.112C54.6402 425.304 54.5815 425.453 54.4642 425.56C54.3575 425.677 54.2082 425.736 54.0162 425.736ZM71.7912 423.08C70.9379 423.08 70.1752 422.888 69.5032 422.504C68.8312 422.12 68.3032 421.592 67.9192 420.92C67.5352 420.248 67.3432 419.485 67.3432 418.632C67.3432 417.768 67.5352 417 67.9192 416.328C68.3032 415.656 68.8312 415.128 69.5032 414.744C70.1752 414.36 70.9379 414.168 71.7912 414.168C72.6445 414.168 73.4019 414.36 74.0632 414.744C74.7352 415.128 75.2632 415.656 75.6472 416.328C76.0312 417 76.2285 417.768 76.2392 418.632C76.2392 419.485 76.0419 420.248 75.6472 420.92C75.2632 421.592 74.7352 422.12 74.0632 422.504C73.4019 422.888 72.6445 423.08 71.7912 423.08ZM71.7912 421.96C72.4099 421.96 72.9645 421.816 73.4552 421.528C73.9459 421.24 74.3299 420.845 74.6072 420.344C74.8845 419.843 75.0232 419.272 75.0232 418.632C75.0232 417.992 74.8845 417.421 74.6072 416.92C74.3299 416.408 73.9459 416.008 73.4552 415.72C72.9645 415.432 72.4099 415.288 71.7912 415.288C71.1725 415.288 70.6179 415.432 70.1272 415.72C69.6365 416.008 69.2472 416.408 68.9592 416.92C68.6819 417.421 68.5432 417.992 68.5432 418.632C68.5432 419.272 68.6819 419.843 68.9592 420.344C69.2472 420.845 69.6365 421.24 70.1272 421.528C70.6179 421.816 71.1725 421.96 71.7912 421.96ZM79.2593 423C79.0673 423 78.9126 422.947 78.7953 422.84C78.6886 422.723 78.6353 422.568 78.6353 422.376V414.856C78.646 414.675 78.7046 414.531 78.8113 414.424C78.9286 414.307 79.078 414.248 79.2593 414.248C79.4406 414.248 79.5846 414.307 79.6913 414.424C79.8086 414.531 79.8673 414.68 79.8673 414.872V417.912H83.2433V418.136C83.798 418.136 84.2886 418.237 84.7153 418.44C85.1526 418.643 85.4886 418.925 85.7233 419.288C85.9686 419.64 86.0913 420.045 86.0913 420.504C86.0913 420.995 85.9686 421.427 85.7233 421.8C85.4886 422.173 85.1526 422.467 84.7153 422.68C84.2886 422.893 83.798 423 83.2433 423H79.2593ZM79.8673 421.864H83.2433C83.7233 421.864 84.118 421.741 84.4273 421.496C84.7366 421.251 84.8913 420.899 84.8913 420.44C84.8913 419.96 84.7366 419.597 84.4273 419.352C84.118 419.096 83.7233 418.968 83.2433 418.968H79.8673V421.864ZM81.6593 418.6V417.912H83.2433C83.6166 417.912 83.9206 417.789 84.1553 417.544C84.39 417.299 84.5073 416.984 84.5073 416.6C84.5073 416.259 84.3793 415.971 84.1233 415.736C83.878 415.491 83.5633 415.368 83.1793 415.368H79.2753V414.248H83.1793C83.67 414.248 84.102 414.349 84.4753 414.552C84.8593 414.744 85.158 415.011 85.3713 415.352C85.5953 415.693 85.7073 416.088 85.7073 416.536C85.7073 417.229 85.4726 417.747 85.0033 418.088C84.5446 418.429 83.958 418.6 83.2433 418.6H81.6593ZM92.1662 423.08C91.3129 423.08 90.5502 422.888 89.8782 422.504C89.2062 422.12 88.6782 421.592 88.2942 420.92C87.9102 420.248 87.7182 419.485 87.7182 418.632C87.7182 417.768 87.9102 417 88.2942 416.328C88.6782 415.656 89.2062 415.128 89.8782 414.744C90.5502 414.36 91.3129 414.168 92.1662 414.168C93.0195 414.168 93.7769 414.36 94.4382 414.744C95.1102 415.128 95.6382 415.656 96.0222 416.328C96.4062 417 96.6035 417.768 96.6142 418.632C96.6142 419.485 96.4169 420.248 96.0222 420.92C95.6382 421.592 95.1102 422.12 94.4382 422.504C93.7769 422.888 93.0195 423.08 92.1662 423.08ZM92.1662 421.96C92.7849 421.96 93.3395 421.816 93.8302 421.528C94.3209 421.24 94.7049 420.845 94.9822 420.344C95.2595 419.843 95.3982 419.272 95.3982 418.632C95.3982 417.992 95.2595 417.421 94.9822 416.92C94.7049 416.408 94.3209 416.008 93.8302 415.72C93.3395 415.432 92.7849 415.288 92.1662 415.288C91.5475 415.288 90.9929 415.432 90.5022 415.72C90.0115 416.008 89.6222 416.408 89.3342 416.92C89.0569 417.421 88.9182 417.992 88.9182 418.632C88.9182 419.272 89.0569 419.843 89.3342 420.344C89.6222 420.845 90.0115 421.24 90.5022 421.528C90.9929 421.816 91.5475 421.96 92.1662 421.96ZM102.274 414.248C102.402 414.248 102.52 414.28 102.626 414.344C102.733 414.408 102.818 414.515 102.882 414.664L106.354 422.216C106.429 422.365 106.434 422.509 106.37 422.648C106.317 422.776 106.216 422.877 106.066 422.952C105.896 423.027 105.741 423.043 105.602 423C105.464 422.947 105.352 422.84 105.266 422.68L101.954 415.304H102.674L99.2983 422.664C99.2236 422.824 99.1063 422.931 98.9463 422.984C98.797 423.027 98.6423 423.011 98.4823 422.936C98.333 422.861 98.2263 422.76 98.1623 422.632C98.109 422.493 98.1143 422.349 98.1783 422.2L101.698 414.664C101.826 414.387 102.018 414.248 102.274 414.248ZM112.129 423.16C111.393 423.16 110.747 423.021 110.193 422.744C109.638 422.467 109.201 422.088 108.881 421.608C108.571 421.117 108.417 420.547 108.417 419.896V414.856C108.427 414.675 108.491 414.531 108.609 414.424C108.726 414.307 108.87 414.248 109.041 414.248C109.211 414.248 109.355 414.307 109.473 414.424C109.59 414.541 109.649 414.691 109.649 414.872V417.144H112.257C112.95 417.144 113.558 417.267 114.081 417.512C114.614 417.757 115.025 418.104 115.313 418.552C115.611 419 115.761 419.517 115.761 420.104C115.761 420.691 115.606 421.219 115.297 421.688C114.998 422.147 114.577 422.509 114.033 422.776C113.489 423.032 112.854 423.16 112.129 423.16ZM112.129 422.024C112.822 422.024 113.398 421.864 113.857 421.544C114.315 421.224 114.545 420.744 114.545 420.104C114.545 419.507 114.342 419.043 113.937 418.712C113.531 418.381 112.971 418.216 112.257 418.216H109.649V419.896C109.649 420.301 109.75 420.669 109.953 421C110.166 421.32 110.454 421.571 110.817 421.752C111.19 421.933 111.627 422.024 112.129 422.024ZM125.311 423C125.129 423 124.98 422.947 124.863 422.84C124.745 422.723 124.687 422.568 124.687 422.376V414.872C124.687 414.68 124.745 414.531 124.863 414.424C124.98 414.307 125.129 414.248 125.311 414.248C125.492 414.248 125.636 414.307 125.743 414.424C125.849 414.531 125.903 414.68 125.903 414.872V422.376C125.903 422.568 125.849 422.723 125.743 422.84C125.636 422.947 125.492 423 125.311 423ZM118.431 423C118.249 423 118.1 422.947 117.983 422.84C117.876 422.723 117.823 422.568 117.823 422.376V414.872C117.823 414.68 117.876 414.531 117.983 414.424C118.1 414.307 118.249 414.248 118.431 414.248C118.612 414.248 118.756 414.307 118.863 414.424C118.98 414.531 119.039 414.68 119.039 414.872V422.376C119.039 422.568 118.98 422.723 118.863 422.84C118.756 422.947 118.612 423 118.431 423ZM118.831 419.144V418.04H125.119V419.144H118.831ZM132.312 423.16C131.619 423.16 131.005 423.021 130.472 422.744C129.949 422.467 129.533 422.083 129.224 421.592C128.925 421.101 128.776 420.536 128.776 419.896V414.856C128.787 414.675 128.845 414.531 128.952 414.424C129.069 414.307 129.219 414.248 129.4 414.248C129.581 414.248 129.725 414.307 129.832 414.424C129.949 414.531 130.008 414.68 130.008 414.872V417.144H132.376C133.016 417.144 133.581 417.267 134.072 417.512C134.573 417.747 134.963 418.088 135.24 418.536C135.517 418.973 135.656 419.496 135.656 420.104C135.656 420.723 135.512 421.261 135.224 421.72C134.947 422.179 134.552 422.536 134.04 422.792C133.539 423.037 132.963 423.16 132.312 423.16ZM132.312 422.024C132.931 422.024 133.443 421.864 133.848 421.544C134.253 421.224 134.456 420.744 134.456 420.104C134.456 419.464 134.259 418.989 133.864 418.68C133.48 418.371 132.984 418.216 132.376 418.216H130.008V419.896C130.008 420.515 130.221 421.027 130.648 421.432C131.085 421.827 131.64 422.024 132.312 422.024ZM137.656 423C137.475 423 137.325 422.947 137.208 422.84C137.101 422.723 137.048 422.568 137.048 422.376V414.872C137.048 414.68 137.101 414.531 137.208 414.424C137.325 414.307 137.475 414.248 137.656 414.248C137.848 414.248 137.997 414.307 138.104 414.424C138.221 414.531 138.28 414.68 138.28 414.872V422.376C138.28 422.568 138.221 422.723 138.104 422.84C137.997 422.947 137.848 423 137.656 423ZM146.794 423C146.666 423 146.56 422.979 146.474 422.936C146.4 422.893 146.32 422.819 146.234 422.712L143.466 419.192L142.986 418.776L140.202 415.24C140.085 415.101 140.026 414.957 140.026 414.808C140.037 414.659 140.09 414.531 140.186 414.424C140.282 414.307 140.421 414.248 140.602 414.248C140.784 414.248 140.938 414.312 141.066 414.44L143.754 417.88L144.186 418.232L147.162 422.04C147.301 422.211 147.36 422.371 147.338 422.52C147.317 422.669 147.248 422.787 147.13 422.872C147.024 422.957 146.912 423 146.794 423ZM140.458 423C140.288 423 140.149 422.947 140.042 422.84C139.946 422.733 139.893 422.605 139.882 422.456C139.882 422.307 139.941 422.163 140.058 422.024L143.002 418.344L143.69 419.256L140.89 422.808C140.794 422.936 140.65 423 140.458 423ZM144.202 418.84L143.418 418.04L146.186 414.536C146.261 414.429 146.341 414.355 146.426 414.312C146.522 414.269 146.618 414.248 146.714 414.248C146.896 414.248 147.034 414.307 147.13 414.424C147.226 414.531 147.269 414.664 147.258 414.824C147.258 414.973 147.205 415.117 147.098 415.256L144.202 418.84ZM65.9744 440.84C65.8677 440.947 65.7237 441 65.5424 441C65.3717 441 65.233 440.941 65.1264 440.824L61.3024 436.632L64.9664 432.44C65.073 432.323 65.2064 432.259 65.3664 432.248C65.5264 432.237 65.665 432.28 65.7824 432.376C65.9104 432.493 65.9797 432.627 65.9904 432.776C66.001 432.915 65.953 433.048 65.8464 433.176L62.8384 436.568L66.0064 440.056C66.113 440.173 66.1664 440.307 66.1664 440.456C66.1664 440.595 66.1024 440.723 65.9744 440.84ZM59.7664 441C59.585 441 59.441 440.947 59.3344 440.84C59.2277 440.723 59.1744 440.573 59.1744 440.392V432.872C59.1744 432.68 59.2277 432.531 59.3344 432.424C59.441 432.307 59.585 432.248 59.7664 432.248C59.9584 432.248 60.1077 432.307 60.2144 432.424C60.3317 432.531 60.3904 432.68 60.3904 432.872V436.04H62.3424V437.16H60.3904V440.392C60.3904 440.573 60.3317 440.723 60.2144 440.84C60.1077 440.947 59.9584 441 59.7664 441ZM71.4227 432.248C71.5508 432.248 71.6681 432.28 71.7748 432.344C71.8814 432.408 71.9668 432.515 72.0308 432.664L75.5028 440.216C75.5774 440.365 75.5828 440.509 75.5188 440.648C75.4654 440.776 75.3641 440.877 75.2148 440.952C75.0441 441.027 74.8894 441.043 74.7508 441C74.6121 440.947 74.5001 440.84 74.4148 440.68L71.1028 433.304H71.8228L68.4468 440.664C68.3721 440.824 68.2548 440.931 68.0948 440.984C67.9454 441.027 67.7908 441.011 67.6308 440.936C67.4814 440.861 67.3748 440.76 67.3108 440.632C67.2574 440.493 67.2628 440.349 67.3268 440.2L70.8468 432.664C70.9748 432.387 71.1668 432.248 71.4227 432.248ZM81.373 441.096C80.6157 441.096 79.9383 440.941 79.341 440.632C78.7437 440.312 78.269 439.848 77.917 439.24C77.5757 438.632 77.405 437.891 77.405 437.016V432.856C77.405 432.685 77.4637 432.541 77.581 432.424C77.6983 432.307 77.8423 432.248 78.013 432.248C78.1943 432.248 78.3437 432.307 78.461 432.424C78.5783 432.541 78.637 432.685 78.637 432.856V437.016C78.637 437.677 78.7597 438.221 79.005 438.648C79.261 439.075 79.6023 439.395 80.029 439.608C80.4663 439.821 80.957 439.928 81.501 439.928C82.0237 439.928 82.493 439.827 82.909 439.624C83.3357 439.421 83.6717 439.144 83.917 438.792C84.1623 438.44 84.285 438.04 84.285 437.592H85.165C85.133 438.264 84.9463 438.867 84.605 439.4C84.2743 439.923 83.8263 440.339 83.261 440.648C82.6957 440.947 82.0663 441.096 81.373 441.096ZM84.893 441C84.7117 441 84.5623 440.947 84.445 440.84C84.3383 440.723 84.285 440.568 84.285 440.376V432.856C84.285 432.675 84.3383 432.531 84.445 432.424C84.5623 432.307 84.7117 432.248 84.893 432.248C85.0743 432.248 85.2237 432.307 85.341 432.424C85.4583 432.531 85.517 432.675 85.517 432.856V440.376C85.517 440.568 85.4583 440.723 85.341 440.84C85.2237 440.947 85.0743 441 84.893 441ZM92.3611 441.08C91.4971 441.08 90.7291 440.893 90.0571 440.52C89.3958 440.136 88.8731 439.608 88.4891 438.936C88.1158 438.264 87.9291 437.496 87.9291 436.632C87.9291 435.757 88.1051 434.989 88.4571 434.328C88.8198 433.656 89.3158 433.128 89.9451 432.744C90.5745 432.36 91.2998 432.168 92.1211 432.168C92.9318 432.168 93.6358 432.355 94.2331 432.728C94.8411 433.091 95.3105 433.597 95.6411 434.248C95.9718 434.899 96.1371 435.64 96.1371 436.472C96.1371 436.643 96.0838 436.781 95.9771 436.888C95.8705 436.984 95.7318 437.032 95.5611 437.032H88.7611V436.008H95.6891L95.0011 436.504C95.0118 435.885 94.8998 435.331 94.6651 434.84C94.4305 434.349 94.0945 433.965 93.6571 433.688C93.2305 433.411 92.7185 433.272 92.1211 433.272C91.5131 433.272 90.9798 433.416 90.5211 433.704C90.0625 433.992 89.7051 434.392 89.4491 434.904C89.2038 435.405 89.0811 435.981 89.0811 436.632C89.0811 437.283 89.2198 437.859 89.4971 438.36C89.7851 438.861 90.1745 439.256 90.6651 439.544C91.1558 439.832 91.7211 439.976 92.3611 439.976C92.7451 439.976 93.1291 439.912 93.5131 439.784C93.9078 439.645 94.2225 439.475 94.4571 439.272C94.5745 439.176 94.7078 439.128 94.8571 439.128C95.0065 439.117 95.1345 439.155 95.2411 439.24C95.3798 439.368 95.4491 439.507 95.4491 439.656C95.4598 439.805 95.4011 439.933 95.2731 440.04C94.9211 440.339 94.4731 440.589 93.9291 440.792C93.3851 440.984 92.8625 441.08 92.3611 441.08ZM105.709 441C105.528 441 105.379 440.947 105.261 440.84C105.144 440.723 105.085 440.568 105.085 440.376V432.872C105.085 432.68 105.144 432.531 105.261 432.424C105.379 432.307 105.528 432.248 105.709 432.248C105.891 432.248 106.035 432.307 106.141 432.424C106.248 432.531 106.301 432.68 106.301 432.872V440.376C106.301 440.568 106.248 440.723 106.141 440.84C106.035 440.947 105.891 441 105.709 441ZM98.8293 441C98.6479 441 98.4986 440.947 98.3813 440.84C98.2746 440.723 98.2213 440.568 98.2213 440.376V432.872C98.2213 432.68 98.2746 432.531 98.3813 432.424C98.4986 432.307 98.6479 432.248 98.8293 432.248C99.0106 432.248 99.1546 432.307 99.2613 432.424C99.3786 432.531 99.4373 432.68 99.4373 432.872V440.376C99.4373 440.568 99.3786 440.723 99.2613 440.84C99.1546 440.947 99.0106 441 98.8293 441ZM99.2293 437.144V436.04H105.517V437.144H99.2293ZM120.998 441C120.817 441 120.668 440.947 120.55 440.84C120.433 440.723 120.374 440.573 120.374 440.392V435.784C120.374 435.027 120.177 434.429 119.782 433.992C119.388 433.544 118.881 433.32 118.262 433.32C117.601 433.32 117.057 433.544 116.63 433.992C116.214 434.429 116.012 435.016 116.022 435.752H114.918C114.929 435.037 115.084 434.408 115.382 433.864C115.681 433.32 116.092 432.899 116.614 432.6C117.137 432.301 117.729 432.152 118.39 432.152C119.02 432.152 119.574 432.301 120.054 432.6C120.545 432.899 120.924 433.32 121.19 433.864C121.468 434.408 121.606 435.048 121.606 435.784V440.392C121.606 440.573 121.548 440.723 121.43 440.84C121.324 440.947 121.18 441 120.998 441ZM109.798 441C109.606 441 109.452 440.947 109.334 440.84C109.228 440.723 109.174 440.573 109.174 440.392V432.872C109.174 432.691 109.228 432.541 109.334 432.424C109.452 432.307 109.606 432.248 109.798 432.248C109.98 432.248 110.124 432.307 110.23 432.424C110.348 432.541 110.406 432.691 110.406 432.872V440.392C110.406 440.573 110.348 440.723 110.23 440.84C110.124 440.947 109.98 441 109.798 441ZM115.414 441C115.233 441 115.084 440.947 114.966 440.84C114.849 440.723 114.79 440.573 114.79 440.392V435.784C114.79 435.027 114.593 434.429 114.198 433.992C113.804 433.544 113.297 433.32 112.678 433.32C112.017 433.32 111.473 433.539 111.046 433.976C110.62 434.403 110.406 434.963 110.406 435.656H109.526C109.548 434.973 109.697 434.371 109.974 433.848C110.262 433.315 110.652 432.899 111.142 432.6C111.633 432.301 112.188 432.152 112.806 432.152C113.436 432.152 113.99 432.301 114.47 432.6C114.961 432.899 115.34 433.32 115.606 433.864C115.884 434.408 116.022 435.048 116.022 435.784V440.392C116.022 440.573 115.964 440.723 115.846 440.84C115.74 440.947 115.596 441 115.414 441ZM128.315 441.08C127.461 441.08 126.699 440.888 126.027 440.504C125.355 440.12 124.827 439.592 124.443 438.92C124.059 438.248 123.867 437.485 123.867 436.632C123.867 435.768 124.059 435 124.443 434.328C124.827 433.656 125.355 433.128 126.027 432.744C126.699 432.36 127.461 432.168 128.315 432.168C129.168 432.168 129.925 432.36 130.587 432.744C131.259 433.128 131.787 433.656 132.171 434.328C132.555 435 132.752 435.768 132.763 436.632C132.763 437.485 132.565 438.248 132.171 438.92C131.787 439.592 131.259 440.12 130.587 440.504C129.925 440.888 129.168 441.08 128.315 441.08ZM128.315 439.96C128.933 439.96 129.488 439.816 129.979 439.528C130.469 439.24 130.853 438.845 131.131 438.344C131.408 437.843 131.547 437.272 131.547 436.632C131.547 435.992 131.408 435.421 131.131 434.92C130.853 434.408 130.469 434.008 129.979 433.72C129.488 433.432 128.933 433.288 128.315 433.288C127.696 433.288 127.141 433.432 126.651 433.72C126.16 434.008 125.771 434.408 125.483 434.92C125.205 435.421 125.067 435.992 125.067 436.632C125.067 437.272 125.205 437.843 125.483 438.344C125.771 438.845 126.16 439.24 126.651 439.528C127.141 439.816 127.696 439.96 128.315 439.96ZM135.783 441C135.591 441 135.436 440.947 135.319 440.84C135.212 440.723 135.159 440.568 135.159 440.376V432.856C135.169 432.675 135.228 432.531 135.335 432.424C135.452 432.307 135.601 432.248 135.783 432.248C135.964 432.248 136.108 432.307 136.215 432.424C136.332 432.531 136.391 432.68 136.391 432.872V435.912H139.767V436.136C140.321 436.136 140.812 436.237 141.239 436.44C141.676 436.643 142.012 436.925 142.247 437.288C142.492 437.64 142.615 438.045 142.615 438.504C142.615 438.995 142.492 439.427 142.247 439.8C142.012 440.173 141.676 440.467 141.239 440.68C140.812 440.893 140.321 441 139.767 441H135.783ZM136.391 439.864H139.767C140.247 439.864 140.641 439.741 140.951 439.496C141.26 439.251 141.415 438.899 141.415 438.44C141.415 437.96 141.26 437.597 140.951 437.352C140.641 437.096 140.247 436.968 139.767 436.968H136.391V439.864ZM138.183 436.6V435.912H139.767C140.14 435.912 140.444 435.789 140.679 435.544C140.913 435.299 141.031 434.984 141.031 434.6C141.031 434.259 140.903 433.971 140.647 433.736C140.401 433.491 140.087 433.368 139.703 433.368H135.799V432.248H139.703C140.193 432.248 140.625 432.349 140.999 432.552C141.383 432.744 141.681 433.011 141.895 433.352C142.119 433.693 142.231 434.088 142.231 434.536C142.231 435.229 141.996 435.747 141.527 436.088C141.068 436.429 140.481 436.6 139.767 436.6H138.183Z" fill="white"/>
<path d="M103 581.229L103 490.543L182.037 446.147L261.073 490.543V581.229L182.037 626.236L103 581.229Z" stroke="black" stroke-width="2"/>
<path d="M177.512 541.72C185.432 541.72 193.064 539.32 193.064 528.616C193.064 520.504 187.4 516.136 180.392 516.136C175.256 516.136 172.376 518.44 170.6 524.008L171.368 512.056H191.192V507.544H170.888L169.496 528.088H170.312C171.752 522.232 173.144 516.856 180.44 516.856C185.672 516.856 188.312 520.552 188.312 528.616C188.312 538.792 183.656 541 177.512 541C173.48 541 170.696 539.896 169.4 539.272L169.16 539.944C170.504 540.568 173.432 541.72 177.512 541.72Z" fill="black"/>
<path d="M126.553 568C126.308 568 126.126 567.899 126.009 567.696C125.902 567.493 125.897 567.296 125.993 567.104L130.697 555.936C130.814 555.648 131.012 555.504 131.289 555.504C131.577 555.504 131.78 555.648 131.897 555.936L136.617 567.12C136.713 567.323 136.702 567.52 136.585 567.712C136.468 567.904 136.292 568 136.057 568C135.929 568 135.812 567.968 135.705 567.904C135.609 567.84 135.534 567.744 135.481 567.616L131.065 556.944H131.577L127.129 567.616C127.076 567.744 126.996 567.84 126.889 567.904C126.793 567.968 126.681 568 126.553 568ZM142.017 568.08C141.153 568.08 140.385 567.893 139.713 567.52C139.052 567.136 138.529 566.608 138.145 565.936C137.772 565.264 137.585 564.496 137.585 563.632C137.585 562.757 137.761 561.989 138.113 561.328C138.476 560.656 138.972 560.128 139.601 559.744C140.231 559.36 140.956 559.168 141.777 559.168C142.588 559.168 143.292 559.355 143.889 559.728C144.497 560.091 144.967 560.597 145.297 561.248C145.628 561.899 145.793 562.64 145.793 563.472C145.793 563.643 145.74 563.781 145.633 563.888C145.527 563.984 145.388 564.032 145.217 564.032H138.417V563.008H145.345L144.657 563.504C144.668 562.885 144.556 562.331 144.321 561.84C144.087 561.349 143.751 560.965 143.313 560.688C142.887 560.411 142.375 560.272 141.777 560.272C141.169 560.272 140.636 560.416 140.177 560.704C139.719 560.992 139.361 561.392 139.105 561.904C138.86 562.405 138.737 562.981 138.737 563.632C138.737 564.283 138.876 564.859 139.153 565.36C139.441 565.861 139.831 566.256 140.321 566.544C140.812 566.832 141.377 566.976 142.017 566.976C142.401 566.976 142.785 566.912 143.169 566.784C143.564 566.645 143.879 566.475 144.113 566.272C144.231 566.176 144.364 566.128 144.513 566.128C144.663 566.117 144.791 566.155 144.897 566.24C145.036 566.368 145.105 566.507 145.105 566.656C145.116 566.805 145.057 566.933 144.929 567.04C144.577 567.339 144.129 567.589 143.585 567.792C143.041 567.984 142.519 568.08 142.017 568.08ZM159.702 568C159.52 568 159.371 567.947 159.254 567.84C159.136 567.723 159.078 567.573 159.078 567.392V562.784C159.078 562.027 158.88 561.429 158.486 560.992C158.091 560.544 157.584 560.32 156.966 560.32C156.304 560.32 155.76 560.544 155.334 560.992C154.918 561.429 154.715 562.016 154.726 562.752H153.622C153.632 562.037 153.787 561.408 154.086 560.864C154.384 560.32 154.795 559.899 155.318 559.6C155.84 559.301 156.432 559.152 157.094 559.152C157.723 559.152 158.278 559.301 158.758 559.6C159.248 559.899 159.627 560.32 159.894 560.864C160.171 561.408 160.31 562.048 160.31 562.784V567.392C160.31 567.573 160.251 567.723 160.134 567.84C160.027 567.947 159.883 568 159.702 568ZM148.502 568C148.31 568 148.155 567.947 148.038 567.84C147.931 567.723 147.878 567.573 147.878 567.392V559.872C147.878 559.691 147.931 559.541 148.038 559.424C148.155 559.307 148.31 559.248 148.502 559.248C148.683 559.248 148.827 559.307 148.934 559.424C149.051 559.541 149.11 559.691 149.11 559.872V567.392C149.11 567.573 149.051 567.723 148.934 567.84C148.827 567.947 148.683 568 148.502 568ZM154.118 568C153.936 568 153.787 567.947 153.67 567.84C153.552 567.723 153.494 567.573 153.494 567.392V562.784C153.494 562.027 153.296 561.429 152.902 560.992C152.507 560.544 152 560.32 151.382 560.32C150.72 560.32 150.176 560.539 149.75 560.976C149.323 561.403 149.11 561.963 149.11 562.656H148.23C148.251 561.973 148.4 561.371 148.678 560.848C148.966 560.315 149.355 559.899 149.846 559.6C150.336 559.301 150.891 559.152 151.51 559.152C152.139 559.152 152.694 559.301 153.174 559.6C153.664 559.899 154.043 560.32 154.31 560.864C154.587 561.408 154.726 562.048 154.726 562.784V567.392C154.726 567.573 154.667 567.723 154.55 567.84C154.443 567.947 154.299 568 154.118 568ZM168.345 571.744C168.153 571.744 167.999 571.685 167.881 571.568C167.775 571.461 167.721 571.312 167.721 571.12V563.568C167.732 562.736 167.929 561.989 168.313 561.328C168.708 560.656 169.236 560.128 169.897 559.744C170.569 559.36 171.321 559.168 172.153 559.168C173.007 559.168 173.769 559.365 174.441 559.76C175.113 560.144 175.641 560.672 176.025 561.344C176.42 562.016 176.617 562.779 176.617 563.632C176.617 564.475 176.425 565.232 176.041 565.904C175.668 566.576 175.156 567.109 174.505 567.504C173.855 567.888 173.119 568.08 172.297 568.08C171.583 568.08 170.932 567.931 170.345 567.632C169.769 567.323 169.305 566.917 168.953 566.416V571.12C168.953 571.312 168.895 571.461 168.777 571.568C168.671 571.685 168.527 571.744 168.345 571.744ZM172.153 566.96C172.772 566.96 173.327 566.816 173.817 566.528C174.308 566.24 174.692 565.845 174.969 565.344C175.257 564.832 175.401 564.261 175.401 563.632C175.401 562.992 175.257 562.421 174.969 561.92C174.692 561.419 174.308 561.024 173.817 560.736C173.327 560.437 172.772 560.288 172.153 560.288C171.545 560.288 170.996 560.437 170.505 560.736C170.015 561.024 169.631 561.419 169.353 561.92C169.076 562.421 168.937 562.992 168.937 563.632C168.937 564.261 169.076 564.832 169.353 565.344C169.631 565.845 170.015 566.24 170.505 566.528C170.996 566.816 171.545 566.96 172.153 566.96ZM182.89 568.08C182.068 568.08 181.332 567.888 180.682 567.504C180.031 567.109 179.514 566.576 179.13 565.904C178.756 565.232 178.57 564.475 178.57 563.632C178.57 562.779 178.762 562.016 179.146 561.344C179.54 560.672 180.074 560.144 180.746 559.76C181.418 559.365 182.175 559.168 183.018 559.168C183.86 559.168 184.612 559.365 185.274 559.76C185.946 560.144 186.474 560.672 186.858 561.344C187.252 562.016 187.455 562.779 187.466 563.632L186.97 564.016C186.97 564.784 186.788 565.477 186.426 566.096C186.074 566.704 185.588 567.189 184.97 567.552C184.362 567.904 183.668 568.08 182.89 568.08ZM183.018 566.96C183.636 566.96 184.186 566.816 184.666 566.528C185.156 566.24 185.54 565.845 185.818 565.344C186.106 564.832 186.25 564.261 186.25 563.632C186.25 562.992 186.106 562.421 185.818 561.92C185.54 561.419 185.156 561.024 184.666 560.736C184.186 560.437 183.636 560.288 183.018 560.288C182.41 560.288 181.86 560.437 181.37 560.736C180.879 561.024 180.49 561.419 180.202 561.92C179.914 562.421 179.77 562.992 179.77 563.632C179.77 564.261 179.914 564.832 180.202 565.344C180.49 565.845 180.879 566.24 181.37 566.528C181.86 566.816 182.41 566.96 183.018 566.96ZM186.842 568C186.66 568 186.511 567.947 186.394 567.84C186.276 567.723 186.218 567.573 186.218 567.392V564.656L186.522 563.392L187.466 563.632V567.392C187.466 567.573 187.407 567.723 187.29 567.84C187.172 567.947 187.023 568 186.842 568ZM193.782 568.08C192.939 568.08 192.193 567.888 191.542 567.504C190.891 567.12 190.379 566.592 190.006 565.92C189.643 565.237 189.462 564.459 189.462 563.584H190.118C190.118 562.827 190.278 562.16 190.598 561.584C190.929 560.997 191.377 560.539 191.942 560.208C192.518 559.877 193.174 559.712 193.91 559.712C194.71 559.712 195.419 559.888 196.038 560.24C196.667 560.592 197.158 561.083 197.51 561.712C197.862 562.341 198.038 563.061 198.038 563.872C198.038 564.693 197.857 565.424 197.494 566.064C197.131 566.693 196.63 567.189 195.99 567.552C195.35 567.904 194.614 568.08 193.782 568.08ZM193.782 566.96C194.379 566.96 194.907 566.832 195.366 566.576C195.825 566.309 196.182 565.947 196.438 565.488C196.705 565.019 196.838 564.48 196.838 563.872C196.838 563.275 196.705 562.747 196.438 562.288C196.182 561.829 195.825 561.472 195.366 561.216C194.907 560.96 194.379 560.832 193.782 560.832C193.174 560.832 192.635 560.96 192.166 561.216C191.697 561.472 191.329 561.829 191.062 562.288C190.806 562.747 190.678 563.275 190.678 563.872C190.678 564.48 190.806 565.019 191.062 565.488C191.329 565.947 191.697 566.309 192.166 566.576C192.635 566.832 193.174 566.96 193.782 566.96ZM189.462 563.632V562.32C189.473 560.901 189.851 559.632 190.598 558.512C191.345 557.381 192.507 556.512 194.086 555.904L196.438 554.976C196.609 554.912 196.758 554.907 196.886 554.96C197.014 555.013 197.11 555.12 197.174 555.28C197.227 555.451 197.227 555.6 197.174 555.728C197.131 555.856 197.009 555.957 196.806 556.032L194.31 557.056C193.371 557.419 192.614 557.877 192.038 558.432C191.473 558.987 191.062 559.611 190.806 560.304C190.55 560.987 190.422 561.712 190.422 562.48L190.438 563.632H189.462ZM204.424 568.08C203.571 568.08 202.808 567.888 202.136 567.504C201.464 567.12 200.936 566.592 200.552 565.92C200.168 565.248 199.976 564.485 199.976 563.632C199.976 562.768 200.168 562 200.552 561.328C200.936 560.656 201.464 560.128 202.136 559.744C202.808 559.36 203.571 559.168 204.424 559.168C205.277 559.168 206.035 559.36 206.696 559.744C207.368 560.128 207.896 560.656 208.28 561.328C208.664 562 208.861 562.768 208.872 563.632C208.872 564.485 208.675 565.248 208.28 565.92C207.896 566.592 207.368 567.12 206.696 567.504C206.035 567.888 205.277 568.08 204.424 568.08ZM204.424 566.96C205.043 566.96 205.597 566.816 206.088 566.528C206.579 566.24 206.963 565.845 207.24 565.344C207.517 564.843 207.656 564.272 207.656 563.632C207.656 562.992 207.517 562.421 207.24 561.92C206.963 561.408 206.579 561.008 206.088 560.72C205.597 560.432 205.043 560.288 204.424 560.288C203.805 560.288 203.251 560.432 202.76 560.72C202.269 561.008 201.88 561.408 201.592 561.92C201.315 562.421 201.176 562.992 201.176 563.632C201.176 564.272 201.315 564.843 201.592 565.344C201.88 565.845 202.269 566.24 202.76 566.528C203.251 566.816 203.805 566.96 204.424 566.96ZM223.092 568C222.911 568 222.761 567.947 222.644 567.84C222.527 567.723 222.468 567.573 222.468 567.392V562.784C222.468 562.027 222.271 561.429 221.876 560.992C221.481 560.544 220.975 560.32 220.356 560.32C219.695 560.32 219.151 560.544 218.724 560.992C218.308 561.429 218.105 562.016 218.116 562.752H217.012C217.023 562.037 217.177 561.408 217.476 560.864C217.775 560.32 218.185 559.899 218.708 559.6C219.231 559.301 219.823 559.152 220.484 559.152C221.113 559.152 221.668 559.301 222.148 559.6C222.639 559.899 223.017 560.32 223.284 560.864C223.561 561.408 223.7 562.048 223.7 562.784V567.392C223.7 567.573 223.641 567.723 223.524 567.84C223.417 567.947 223.273 568 223.092 568ZM211.892 568C211.7 568 211.545 567.947 211.428 567.84C211.321 567.723 211.268 567.573 211.268 567.392V559.872C211.268 559.691 211.321 559.541 211.428 559.424C211.545 559.307 211.7 559.248 211.892 559.248C212.073 559.248 212.217 559.307 212.324 559.424C212.441 559.541 212.5 559.691 212.5 559.872V567.392C212.5 567.573 212.441 567.723 212.324 567.84C212.217 567.947 212.073 568 211.892 568ZM217.508 568C217.327 568 217.177 567.947 217.06 567.84C216.943 567.723 216.884 567.573 216.884 567.392V562.784C216.884 562.027 216.687 561.429 216.292 560.992C215.897 560.544 215.391 560.32 214.772 560.32C214.111 560.32 213.567 560.539 213.14 560.976C212.713 561.403 212.5 561.963 212.5 562.656H211.62C211.641 561.973 211.791 561.371 212.068 560.848C212.356 560.315 212.745 559.899 213.236 559.6C213.727 559.301 214.281 559.152 214.9 559.152C215.529 559.152 216.084 559.301 216.564 559.6C217.055 559.899 217.433 560.32 217.7 560.864C217.977 561.408 218.116 562.048 218.116 562.784V567.392C218.116 567.573 218.057 567.723 217.94 567.84C217.833 567.947 217.689 568 217.508 568ZM229.96 568.16C229.267 568.16 228.654 568.021 228.12 567.744C227.598 567.467 227.182 567.083 226.872 566.592C226.574 566.101 226.424 565.536 226.424 564.896V559.856C226.435 559.675 226.494 559.531 226.6 559.424C226.718 559.307 226.867 559.248 227.048 559.248C227.23 559.248 227.374 559.307 227.48 559.424C227.598 559.531 227.656 559.68 227.656 559.872V562.144H230.024C230.664 562.144 231.23 562.267 231.72 562.512C232.222 562.747 232.611 563.088 232.888 563.536C233.166 563.973 233.304 564.496 233.304 565.104C233.304 565.723 233.16 566.261 232.872 566.72C232.595 567.179 232.2 567.536 231.688 567.792C231.187 568.037 230.611 568.16 229.96 568.16ZM229.96 567.024C230.579 567.024 231.091 566.864 231.496 566.544C231.902 566.224 232.104 565.744 232.104 565.104C232.104 564.464 231.907 563.989 231.512 563.68C231.128 563.371 230.632 563.216 230.024 563.216H227.656V564.896C227.656 565.515 227.87 566.027 228.296 566.432C228.734 566.827 229.288 567.024 229.96 567.024ZM235.304 568C235.123 568 234.974 567.947 234.856 567.84C234.75 567.723 234.696 567.568 234.696 567.376V559.872C234.696 559.68 234.75 559.531 234.856 559.424C234.974 559.307 235.123 559.248 235.304 559.248C235.496 559.248 235.646 559.307 235.752 559.424C235.87 559.531 235.928 559.68 235.928 559.872V567.376C235.928 567.568 235.87 567.723 235.752 567.84C235.646 567.947 235.496 568 235.304 568Z" fill="black"/>
</svg>
