<svg width="161" height="45" viewBox="0 0 161 45" fill="none" xmlns="http://www.w3.org/2000/svg">
<path d="M11.6885 10.6093C14.8583 10.6093 17.581 11.7573 19.8567 14.0533C22.1427 16.3494 23.2857 19.1483 23.2856 22.4502C23.2856 25.7215 22.1579 28.49 19.9025 30.7555C17.6572 33.0211 14.9294 34.1538 11.719 34.1538C8.35621 34.1538 5.56234 32.9906 3.33741 30.6641C1.5522 28.8033 0.41457 26.4165 0.0933753 23.8579C-0.227819 21.2994 0.284544 18.7054 1.55442 16.4611C2.58458 14.6849 4.06247 13.2098 5.84065 12.183C7.61883 11.1562 9.63516 10.6136 11.6885 10.6093V10.6093ZM11.6428 14.7848C9.57026 14.7848 7.82791 15.5061 6.41574 16.9488C5.00358 18.3914 4.2975 20.2252 4.29749 22.4502C4.29749 24.9291 5.18645 26.8899 6.96435 28.3326C8.29808 29.4431 9.98354 30.0427 11.719 30.024C12.6854 30.0382 13.6442 29.8503 14.5338 29.4724C15.4234 29.0946 16.2243 28.535 16.8851 27.8296C18.3075 26.3666 19.0186 24.5633 19.0186 22.4197C19.0186 20.2862 18.3023 18.4829 16.8698 17.0097C16.2027 16.2938 15.3928 15.7259 14.4924 15.3426C13.592 14.9594 12.6212 14.7693 11.6428 14.7848Z" fill="black"/>
<path d="M27.7856 33.9709V10.6093H39.9986V14.9449H32.2325V19.4235H33.2013C35.1707 19.4235 36.78 19.6405 38.0293 20.0746C39.3085 20.532 40.4021 21.3968 41.142 22.5362C41.9784 23.7326 42.3966 25.1514 42.3966 26.7924C42.3966 28.4229 42.0843 29.7252 41.4596 30.6993C40.8055 31.6899 39.9161 32.503 38.8709 33.0657C37.7805 33.6692 36.2665 33.9709 34.3289 33.9709L27.7856 33.9709ZM32.2325 23.3938V29.7306H33.3442C35.377 29.7306 36.6635 29.4659 37.2035 28.9365C37.7434 28.4071 38.0134 27.6924 38.0134 26.7924C38.0134 24.5267 36.3934 23.3939 33.1536 23.3938H32.2325Z" fill="black"/>
<path d="M61.5443 34.1539L55.2442 17.4206L48.8357 34.1539H44.2383L53.0151 11.3836H57.4114L66.1727 34.1539L61.5443 34.1539Z" fill="#31D6C9"/>
<path d="M86.9094 10.683V34.1538H82.4418V19.4586L73.6822 34.1538H69.7891V10.683H74.2565V25.8568L83.1439 10.683H86.9094Z" fill="black"/>
<path d="M92.2715 10.5776H96.8072V18.6874L103.202 10.5776H108.603L100.365 21.0915L109.405 34.1537H104.084L96.8072 23.6879V34.1537H92.2715L92.2715 10.5776Z" fill="black"/>
<path d="M114.57 3.48071V41.2509" stroke="black" stroke-width="5" stroke-miterlimit="10"/>
<path d="M140.88 1.16638L121.902 11.905V33.845L140.88 44.7313L159.857 33.845V11.905L140.88 1.16638Z" fill="black"/>
<path d="M121.162 34.2845H161L140.88 0L121.162 34.2845Z" fill="#31D6C9"/>
</svg>
